<?xml version="1.0" encoding="UTF-8" standalone="no"?>
<svg
   viewBox="0 0 700 700"
   version="1.1"
   id="svg9724"
   sodipodi:docname="activity.svg"
   inkscape:version="1.3.2 (091e20ef0f, 2023-11-25)"
   width="700"
   height="700"
   xmlns:inkscape="http://www.inkscape.org/namespaces/inkscape"
   xmlns:sodipodi="http://sodipodi.sourceforge.net/DTD/sodipodi-0.dtd"
   xmlns="http://www.w3.org/2000/svg"
   xmlns:svg="http://www.w3.org/2000/svg">
  <defs
     id="defs9728" />
  <sodipodi:namedview
     id="namedview9726"
     pagecolor="#ffffff"
     bordercolor="#666666"
     borderopacity="1.0"
     inkscape:showpageshadow="2"
     inkscape:pageopacity="0.0"
     inkscape:pagecheckerboard="0"
     inkscape:deskcolor="#d1d1d1"
     showgrid="true"
     inkscape:zoom="0.59480855"
     inkscape:cx="300.09656"
     inkscape:cy="414.41906"
     inkscape:window-width="1920"
     inkscape:window-height="1008"
     inkscape:window-x="0"
     inkscape:window-y="1080"
     inkscape:window-maximized="1"
     inkscape:current-layer="svg9724"
     showguides="true">
    <inkscape:grid
       type="xygrid"
       id="grid9972"
       originx="0"
       originy="0"
       spacingy="1"
       spacingx="1"
       units="px"
       visible="true" />
  </sodipodi:namedview>
  <path
     style="color:#000000;fill:#000000;stroke-linecap:round;stroke-linejoin:round;-inkscape-stroke:none;paint-order:stroke fill markers"
     d="M 269.32031,50.001953 A 40.004,40.004 0 0 0 230.54883,78.925781 L 167.19922,299.03125 69.912109,297.70117 a 40,40 0 0 0 -40.542968,39.45117 40,40 0 0 0 39.449218,40.54297 l 127.828121,1.74414 a 40.004,40.004 0 0 0 38.98633,-28.93164 l 32.11328,-111.57617 102.93555,381.49805 a 40.004,40.004 0 0 0 76.92383,1.10156 l 72.375,-240.61133 h 110.6543 a 40,40 0 0 0 40,-40 40,40 0 0 0 -40,-40 H 490.24219 A 40.004,40.004 0 0 0 451.9375,329.39844 L 411.38867,464.20312 307.60547,79.570312 A 40.004,40.004 0 0 0 269.32031,50.001953 Z"
     id="path1" />
</svg>
