<?xml version="1.0" encoding="UTF-8" standalone="no"?>
<svg
   viewBox="0 0 700 700"
   version="1.1"
   id="svg9724"
   sodipodi:docname="add-circle.svg"
   inkscape:version="1.3.2 (091e20ef0f, 2023-11-25)"
   width="700"
   height="700"
   xmlns:inkscape="http://www.inkscape.org/namespaces/inkscape"
   xmlns:sodipodi="http://sodipodi.sourceforge.net/DTD/sodipodi-0.dtd"
   xmlns="http://www.w3.org/2000/svg"
   xmlns:svg="http://www.w3.org/2000/svg">
  <defs
     id="defs9728" />
  <sodipodi:namedview
     id="namedview9726"
     pagecolor="#ffffff"
     bordercolor="#666666"
     borderopacity="1.0"
     inkscape:showpageshadow="2"
     inkscape:pageopacity="0.0"
     inkscape:pagecheckerboard="0"
     inkscape:deskcolor="#d1d1d1"
     showgrid="true"
     inkscape:zoom="0.59480855"
     inkscape:cx="378.27298"
     inkscape:cy="232.84803"
     inkscape:window-width="1387"
     inkscape:window-height="1048"
     inkscape:window-x="533"
     inkscape:window-y="0"
     inkscape:window-maximized="0"
     inkscape:current-layer="g10449"
     showguides="true">
    <inkscape:grid
       type="xygrid"
       id="grid9972"
       originx="0"
       originy="0"
       spacingy="1"
       spacingx="1"
       units="px"
       visible="true" />
  </sodipodi:namedview>
  <g
     id="g10449"
     transform="matrix(0.95173205,0,0,0.95115787,13.901174,12.168794)"
     style="stroke-width:1.05103">
    <g
       id="path10026"
       inkscape:transform-center-x="-0.59233046"
       inkscape:transform-center-y="-20.347403"
       transform="matrix(1.3807551,0,0,1.2700888,273.60014,263.99768)" />
    <g
       id="g11314"
       transform="matrix(1.5092301,0,0,1.3955555,36.774048,-9.4503933)"
       style="stroke-width:50.6951" />
    <path
       style="color:#000000;fill:#000000;stroke-linecap:round;stroke-linejoin:round;-inkscape-stroke:none;paint-order:stroke fill markers"
       d="m 353.14438,39.774606 c -173.60599,0 -315.214843,141.724834 -315.214843,315.404294 0,173.67945 141.608853,315.40429 315.214843,315.40429 173.606,0 315.21485,-141.72484 315.21485,-315.40429 0,-173.67946 -141.60885,-315.404294 -315.21485,-315.404294 z m 0,84.082034 c 128.13278,0 231.13086,103.05273 231.13086,231.32226 0,128.26952 -102.99808,231.32226 -231.13086,231.32226 -128.13277,0 -231.13281,-103.05274 -231.13281,-231.32226 0,-128.26953 103.00004,-231.32226 231.13281,-231.32226 z"
       id="path390" />
    <path
       style="color:#000000;fill:#000000;stroke-linecap:round;stroke-linejoin:round;-inkscape-stroke:none"
       d="m 546.2823,325.44043 a 42.059345,42.023465 67.500003 0 0 -29.72637,-12.318 l -326.87469,0.004 a 42.059345,42.023465 67.500003 0 0 -42.00332,42.05627 42.059345,42.023465 67.500003 0 0 42.05487,42.05268 l 326.87473,-0.004 a 42.059345,42.023465 67.500003 0 0 42.00333,-42.05627 42.059345,42.023465 67.500003 0 0 -12.32852,-29.73466 z"
       id="path446" />
    <g
       id="g294"
       transform="matrix(0.70710678,0.70753364,-0.70668018,0.70710678,354.43157,-71.490164)">
      <path
         style="color:#000000;fill:#000000;stroke-linecap:round;stroke-linejoin:round;-inkscape-stroke:none"
         d="m 185.05664,144.93164 a 42.041401,42.041401 0 0 0 -29.73242,12.30273 42.041401,42.041401 0 0 0 -0.0195,59.45704 L 386.4375,447.96875 a 42.041401,42.041401 0 0 0 59.45508,0.0195 42.041401,42.041401 0 0 0 0.0195,-59.45703 L 214.7793,157.25391 a 42.041401,42.041401 0 0 0 -29.72266,-12.32227 z"
         id="path446-3" />
    </g>
  </g>
</svg>
