<?xml version="1.0" encoding="UTF-8" standalone="no"?>
<svg
   viewBox="0 0 600 600"
   version="1.1"
   id="svg9724"
   sodipodi:docname="alert.svg"
   inkscape:version="1.2.2 (1:1.2.2+202212051550+b0a8486541)"
   width="600"
   height="600"
   xmlns:inkscape="http://www.inkscape.org/namespaces/inkscape"
   xmlns:sodipodi="http://sodipodi.sourceforge.net/DTD/sodipodi-0.dtd"
   xmlns="http://www.w3.org/2000/svg"
   xmlns:svg="http://www.w3.org/2000/svg">
  <defs
     id="defs9728" />
  <sodipodi:namedview
     id="namedview9726"
     pagecolor="#ffffff"
     bordercolor="#666666"
     borderopacity="1.0"
     inkscape:showpageshadow="2"
     inkscape:pageopacity="0.0"
     inkscape:pagecheckerboard="0"
     inkscape:deskcolor="#d1d1d1"
     showgrid="true"
     inkscape:zoom="0.59480855"
     inkscape:cx="227.80439"
     inkscape:cy="426.18755"
     inkscape:window-width="1920"
     inkscape:window-height="1009"
     inkscape:window-x="0"
     inkscape:window-y="1080"
     inkscape:window-maximized="1"
     inkscape:current-layer="svg9724"
     showguides="true">
    <inkscape:grid
       type="xygrid"
       id="grid9972"
       originx="0"
       originy="0" />
    <sodipodi:guide
       position="-260,300"
       orientation="0,-1"
       id="guide383"
       inkscape:locked="false" />
    <sodipodi:guide
       position="300,520"
       orientation="1,0"
       id="guide385"
       inkscape:locked="false" />
    <sodipodi:guide
       position="240,520"
       orientation="0,-1"
       id="guide939"
       inkscape:locked="false" />
    <sodipodi:guide
       position="220,80"
       orientation="0,-1"
       id="guide941"
       inkscape:locked="false" />
    <sodipodi:guide
       position="560,200"
       orientation="0,-1"
       id="guide1806"
       inkscape:locked="false" />
  </sodipodi:namedview>

  <path
     id="path1780"
     style="color:#000000;fill:#000000;stroke-linecap:round;stroke-linejoin:round;-inkscape-stroke:none;paint-order:stroke fill markers"
     d="M 300 0 C 204.92302 0 120 65.17035 120 155 A 40 40 0 0 0 120.72852 160.5332 A 40 40 0 0 0 119.83984 165 C 119.83984 285.43738 70.949871 389.48179 19.386719 420.81836 A 40 40 0 0 0 0.33984375 456.98438 A 40 40 0 0 0 0 460 A 40 40 0 0 0 40 500 L 164.75586 500 C 173.8133 535.3936 198.4031 565.81344 231.86914 583.36328 C 274.50045 605.71947 325.49955 605.71947 368.13086 583.36328 C 401.5969 565.81344 426.1867 535.3936 435.24414 500 L 560 500 A 40 40 0 0 0 600 460 A 40 40 0 0 0 599.49023 453.71094 A 40 40 0 0 0 580.45312 415.81836 C 528.88999 384.48179 480 280.43738 480 160 A 40 40 0 0 0 479.78125 156.66016 A 40 40 0 0 0 480 155 C 480 65.17035 395.07698 0 300 0 z M 300 80 C 359.56242 80 400 117.80441 400 155 A 40 40 0 0 0 400.39648 158.00781 A 40 40 0 0 0 400 160 C 400 260.06525 423.99132 354.08053 471.20703 420 L 400 420 A 40 40 0 0 0 360 460 A 40 40 0 0 0 360.11914 461.05273 A 39.999851 39.999851 0 0 0 359.10742 469.98047 C 359.10742 486.47868 349.67325 502.71094 330.97656 512.51562 C 312.27988 522.32033 287.72012 522.32033 269.02344 512.51562 C 250.32675 502.71094 240.89258 486.47868 240.89258 469.98047 A 39.999851 39.999851 0 0 0 239.87305 461.13281 A 40 40 0 0 0 240 460 A 40 40 0 0 0 200 420 L 132.11133 420 C 177.01808 354.37074 199.83984 262.56829 199.83984 165 A 40 40 0 0 0 199.42188 159.39453 A 40 40 0 0 0 200 155 C 200 117.80441 240.43758 80 300 80 z " />
</svg>
