<?xml version="1.0" encoding="UTF-8" standalone="no"?>
<svg
   viewBox="0 0 700 700"
   version="1.1"
   id="svg9724"
   sodipodi:docname="alert.svg"
   inkscape:version="1.3.2 (091e20ef0f, 2023-11-25)"
   width="700"
   height="700"
   xmlns:inkscape="http://www.inkscape.org/namespaces/inkscape"
   xmlns:sodipodi="http://sodipodi.sourceforge.net/DTD/sodipodi-0.dtd"
   xmlns="http://www.w3.org/2000/svg"
   xmlns:svg="http://www.w3.org/2000/svg">
  <defs
     id="defs9728" />
  <sodipodi:namedview
     id="namedview9726"
     pagecolor="#ffffff"
     bordercolor="#666666"
     borderopacity="1.0"
     inkscape:showpageshadow="2"
     inkscape:pageopacity="0.0"
     inkscape:pagecheckerboard="0"
     inkscape:deskcolor="#d1d1d1"
     showgrid="true"
     inkscape:zoom="0.59480855"
     inkscape:cx="227.80439"
     inkscape:cy="426.18755"
     inkscape:window-width="1920"
     inkscape:window-height="1008"
     inkscape:window-x="0"
     inkscape:window-y="1080"
     inkscape:window-maximized="1"
     inkscape:current-layer="svg9724"
     showguides="true">
    <inkscape:grid
       type="xygrid"
       id="grid9972"
       originx="0"
       originy="0"
       spacingy="1"
       spacingx="1"
       units="px"
       visible="true" />
    <sodipodi:guide
       position="-260,300"
       orientation="0,-1"
       id="guide383"
       inkscape:locked="false" />
    <sodipodi:guide
       position="300,520"
       orientation="1,0"
       id="guide385"
       inkscape:locked="false" />
    <sodipodi:guide
       position="240,520"
       orientation="0,-1"
       id="guide939"
       inkscape:locked="false" />
    <sodipodi:guide
       position="220,80"
       orientation="0,-1"
       id="guide941"
       inkscape:locked="false" />
    <sodipodi:guide
       position="560,200"
       orientation="0,-1"
       id="guide1806"
       inkscape:locked="false" />
  </sodipodi:namedview>
  <path
     id="path1780"
     style="color:#000000;fill:#000000;stroke-linecap:round;stroke-linejoin:round;-inkscape-stroke:none;paint-order:stroke fill markers"
     d="m 350,49.934789 c -95.07698,0 -180,65.170351 -180,155.000001 a 40,40 0 0 0 0.72852,5.5332 40,40 0 0 0 -0.88868,4.4668 c 0,120.43738 -48.88997,224.48179 -100.453121,255.81836 A 40,40 0 0 0 50.339844,506.91917 40,40 0 0 0 50,509.93479 a 40,40 0 0 0 40,40 h 124.75586 c 9.05744,35.3936 33.64724,65.81344 67.11328,83.36328 42.63131,22.35619 93.63041,22.35619 136.26172,0 33.46604,-17.54984 58.05584,-47.96968 67.11328,-83.36328 H 610 a 40,40 0 0 0 40,-40 40,40 0 0 0 -0.50977,-6.28906 40,40 0 0 0 -19.03711,-37.89258 C 578.88999,434.41658 530,330.37217 530,209.93479 A 40,40 0 0 0 529.78125,206.59495 40,40 0 0 0 530,204.93479 C 530,115.10514 445.07698,49.934789 350,49.934789 Z m 0,80.000001 c 59.56242,0 100,37.80441 100,75 a 40,40 0 0 0 0.39648,3.00781 A 40,40 0 0 0 450,209.93479 c 0,100.06525 23.99132,194.08053 71.20703,260 H 450 a 40,40 0 0 0 -40,40 40,40 0 0 0 0.11914,1.05273 39.999851,39.999851 0 0 0 -1.01172,8.92774 c 0,16.49821 -9.43417,32.73047 -28.13086,42.53515 -18.69668,9.80471 -43.25644,9.80471 -61.95312,0 -18.69669,-9.80468 -28.13086,-26.03694 -28.13086,-42.53515 a 39.999851,39.999851 0 0 0 -1.01953,-8.84766 40,40 0 0 0 0.12695,-1.13281 40,40 0 0 0 -40,-40 h -67.88867 c 44.90675,-65.62926 67.72851,-157.43171 67.72851,-255 A 40,40 0 0 0 249.42188,209.32932 40,40 0 0 0 250,204.93479 c 0,-37.19559 40.43758,-75 100,-75 z" />
</svg>
