<?xml version="1.0" encoding="UTF-8" standalone="no"?>
<svg
   viewBox="0 0 700 700"
   version="1.1"
   id="svg9724"
   sodipodi:docname="arrow-increase.svg"
   inkscape:version="1.3.2 (091e20ef0f, 2023-11-25)"
   width="700"
   height="700"
   xmlns:inkscape="http://www.inkscape.org/namespaces/inkscape"
   xmlns:sodipodi="http://sodipodi.sourceforge.net/DTD/sodipodi-0.dtd"
   xmlns="http://www.w3.org/2000/svg"
   xmlns:svg="http://www.w3.org/2000/svg">
  <defs
     id="defs9728" />
  <sodipodi:namedview
     id="namedview9726"
     pagecolor="#ffffff"
     bordercolor="#666666"
     borderopacity="1.0"
     inkscape:showpageshadow="2"
     inkscape:pageopacity="0.0"
     inkscape:pagecheckerboard="0"
     inkscape:deskcolor="#d1d1d1"
     showgrid="true"
     inkscape:zoom="0.84118632"
     inkscape:cx="310.87049"
     inkscape:cy="402.40788"
     inkscape:window-width="1920"
     inkscape:window-height="1008"
     inkscape:window-x="0"
     inkscape:window-y="1080"
     inkscape:window-maximized="1"
     inkscape:current-layer="svg9724"
     showguides="true">
    <inkscape:grid
       type="xygrid"
       id="grid9972"
       originx="0"
       originy="0"
       spacingy="1"
       spacingx="1"
       units="px"
       visible="true" />
    <sodipodi:guide
       position="-260,300"
       orientation="0,-1"
       id="guide383"
       inkscape:locked="false" />
    <sodipodi:guide
       position="300,400"
       orientation="1,0"
       id="guide385"
       inkscape:locked="false" />
    <sodipodi:guide
       position="240,520"
       orientation="0,-1"
       id="guide939"
       inkscape:locked="false" />
    <sodipodi:guide
       position="220,80"
       orientation="0,-1"
       id="guide941"
       inkscape:locked="false" />
  </sodipodi:namedview>
  <path
     id="path508"
     style="color:#000000;fill:#000000;stroke-width:0.999997;stroke-linecap:round;-inkscape-stroke:none"
     d="m 452.08399,50.000009 a 40.012101,39.987962 0 0 0 -40.01172,39.988275 40.012101,39.987962 0 0 0 40.01172,39.988286 h 61.36328 L 381.67774,261.75782 a 40.012385,39.988245 0 0 0 0.0176,56.55077 40.012385,39.988245 0 0 0 56.5879,-0.0176 L 569.97461,186.58985 v 61.30273 A 40.012101,39.987962 0 0 0 609.98633,287.88086 40.012101,39.987962 0 0 0 650,247.89258 V 89.988284 a 40.012101,39.987962 0 0 0 -0.043,-0.320312 40.012385,39.988245 0 0 0 -1.28515,-9.757815 40.012101,39.987962 0 0 0 -0.0352,-0.271479 40.012101,39.987962 0 0 0 -0.13477,-0.322272 40.012385,39.988245 0 0 0 -3.79101,-9.152335 40.012101,39.987962 0 0 0 -0.0703,-0.169925 40.012101,39.987962 0 0 0 -0.18164,-0.236324 40.012385,39.988245 0 0 0 -6.125,-7.976572 A 40.012101,39.987962 0 0 0 620.3437,51.363284 40.012101,39.987962 0 0 0 609.98628,50.000009 Z M 290.00586,369.98828 A 40.012385,39.988245 0 0 0 261.7168,381.70899 L 130.02539,513.41016 v -61.30273 a 40.012101,39.987962 0 0 0 -40.011718,-39.98828 40.012101,39.987962 0 0 0 -40.01367,39.98828 v 157.90429 a 40.012385,39.988245 0 0 0 0.179687,1.36524 40.012101,39.987962 0 0 0 1.185544,8.98633 40.012101,39.987962 0 0 0 3.994143,9.64257 40.012101,39.987962 0 0 0 14.64649,14.63672 40.012101,39.987962 0 0 0 9.650382,3.99414 A 40.012101,39.987962 0 0 0 90.013672,650 H 247.91602 a 40.012101,39.987962 0 0 0 40.01171,-39.98828 40.012101,39.987962 0 0 0 -40.01171,-39.98828 H 186.55274 L 318.32227,438.24219 a 40.012385,39.988245 0 0 0 -0.0176,-56.55078 40.012385,39.988245 0 0 0 -28.29883,-11.70313 z" />
</svg>
