<?xml version="1.0" encoding="UTF-8" standalone="no"?>
<svg
   viewBox="0 0 700 700"
   version="1.1"
   id="svg9724"
   sodipodi:docname="arrow-decrease.svg"
   inkscape:version="1.3.2 (091e20ef0f, 2023-11-25)"
   width="700"
   height="700"
   xmlns:inkscape="http://www.inkscape.org/namespaces/inkscape"
   xmlns:sodipodi="http://sodipodi.sourceforge.net/DTD/sodipodi-0.dtd"
   xmlns="http://www.w3.org/2000/svg"
   xmlns:svg="http://www.w3.org/2000/svg">
  <defs
     id="defs9728" />
  <sodipodi:namedview
     id="namedview9726"
     pagecolor="#ffffff"
     bordercolor="#666666"
     borderopacity="1.0"
     inkscape:showpageshadow="2"
     inkscape:pageopacity="0.0"
     inkscape:pagecheckerboard="0"
     inkscape:deskcolor="#d1d1d1"
     showgrid="true"
     inkscape:zoom="0.84118632"
     inkscape:cx="258.56341"
     inkscape:cy="381.00952"
     inkscape:window-width="1920"
     inkscape:window-height="1008"
     inkscape:window-x="0"
     inkscape:window-y="1080"
     inkscape:window-maximized="1"
     inkscape:current-layer="svg9724"
     showguides="true">
    <inkscape:grid
       type="xygrid"
       id="grid9972"
       originx="0"
       originy="0"
       spacingy="1"
       spacingx="1"
       units="px"
       visible="true" />
    <sodipodi:guide
       position="-260,300"
       orientation="0,-1"
       id="guide383"
       inkscape:locked="false" />
    <sodipodi:guide
       position="300,400"
       orientation="1,0"
       id="guide385"
       inkscape:locked="false" />
    <sodipodi:guide
       position="240,520"
       orientation="0,-1"
       id="guide939"
       inkscape:locked="false" />
    <sodipodi:guide
       position="220,80"
       orientation="0,-1"
       id="guide941"
       inkscape:locked="false" />
  </sodipodi:namedview>
  <path
     id="path297"
     style="color:#000000;fill:#000000;stroke-width:0.999997;stroke-linecap:round;-inkscape-stroke:none"
     d="M 609.97461 50 A 40.012385 39.988245 0 0 0 581.68555 61.722656 L 449.99219 193.42578 L 449.99219 132.11914 A 40.012101 39.987962 0 0 0 409.98047 92.132812 A 40.012101 39.987962 0 0 0 369.9668 132.11914 L 369.9668 290.02539 A 40.012101 39.987962 0 0 0 371.24609 299.71094 A 40.012385 39.988245 0 0 0 372.26367 302.61914 A 40.012101 39.987962 0 0 0 374.83789 308.81836 A 40.012101 39.987962 0 0 0 374.83984 308.82031 A 40.012385 39.988245 0 0 0 376.74805 311.85938 A 40.012101 39.987962 0 0 0 380.56055 316.81836 A 40.012101 39.987962 0 0 0 380.5625 316.82227 A 40.012385 39.988245 0 0 0 381.69727 318.29883 A 40.012385 39.988245 0 0 0 383.16602 319.42383 A 40.012385 39.988245 0 0 0 383.17188 319.42773 A 40.012101 39.987962 0 0 0 388.16797 323.25781 A 40.012385 39.988245 0 0 0 391.16211 325.13672 A 40.012101 39.987962 0 0 0 397.50977 327.76172 A 40.012101 39.987962 0 0 0 397.51562 327.76367 A 40.012385 39.988245 0 0 0 400.26172 328.72461 A 40.012101 39.987962 0 0 0 409.98047 330.01172 L 567.88477 330.01172 A 40.012101 39.987962 0 0 0 607.89648 290.02539 A 40.012101 39.987962 0 0 0 567.88477 250.03711 L 506.52148 250.03711 L 638.29102 118.25586 A 40.012385 39.988245 0 0 0 638.27344 61.705078 A 40.012385 39.988245 0 0 0 609.97461 50 z M 132.11523 369.98828 A 40.012101 39.987962 0 0 0 92.103516 409.97461 A 40.012101 39.987962 0 0 0 132.11523 449.96289 L 193.47852 449.96289 L 61.708984 581.74414 A 40.012385 39.988245 0 0 0 61.726562 638.29492 A 40.012385 39.988245 0 0 0 118.31445 638.27734 L 250.00781 506.57422 L 250.00781 567.88086 A 40.012101 39.987962 0 0 0 290.01953 607.86719 A 40.012101 39.987962 0 0 0 330.0332 567.88086 L 330.0332 409.97461 A 40.012101 39.987962 0 0 0 329.98828 409.58398 A 40.012385 39.988245 0 0 0 329.98828 409.58203 A 40.012385 39.988245 0 0 0 329.98828 409.58008 A 40.012385 39.988245 0 0 0 329.98828 409.57812 A 40.012385 39.988245 0 0 0 329.98828 409.57617 A 40.012385 39.988245 0 0 0 329.05078 401.26953 A 40.012385 39.988245 0 0 0 329.05078 401.26758 A 40.012101 39.987962 0 0 0 328.99805 400.98828 A 40.012385 39.988245 0 0 0 328.99805 400.98633 A 40.012385 39.988245 0 0 0 326.18945 392.96289 A 40.012385 39.988245 0 0 0 326.1875 392.96094 A 40.012101 39.987962 0 0 0 325.82812 392.24219 A 40.012385 39.988245 0 0 0 325.82227 392.23047 A 40.012385 39.988245 0 0 0 321.5332 385.41016 A 40.012385 39.988245 0 0 0 321.5293 385.4043 A 40.012101 39.987962 0 0 0 321.11523 384.85547 A 40.012385 39.988245 0 0 0 318.30273 381.70117 A 40.012385 39.988245 0 0 0 316.83398 380.57617 A 40.012385 39.988245 0 0 0 316.82812 380.57227 A 40.012101 39.987962 0 0 0 314.9668 378.71094 A 40.012101 39.987962 0 0 0 311.83203 376.74219 A 40.012385 39.988245 0 0 0 308.83789 374.86328 A 40.012101 39.987962 0 0 0 302.49023 372.23828 A 40.012385 39.988245 0 0 0 302.48438 372.23633 A 40.012385 39.988245 0 0 0 299.73828 371.27539 A 40.012101 39.987962 0 0 0 298.92188 370.99023 A 40.012101 39.987962 0 0 0 290.01953 369.98828 L 132.11523 369.98828 z " />
</svg>
