<?xml version="1.0" encoding="UTF-8" standalone="no"?>
<svg
   viewBox="0 0 700 700"
   version="1.1"
   id="svg9724"
   sodipodi:docname="cloud.svg"
   inkscape:version="1.3.2 (091e20ef0f, 2023-11-25)"
   width="700"
   height="700"
   xmlns:inkscape="http://www.inkscape.org/namespaces/inkscape"
   xmlns:sodipodi="http://sodipodi.sourceforge.net/DTD/sodipodi-0.dtd"
   xmlns="http://www.w3.org/2000/svg"
   xmlns:svg="http://www.w3.org/2000/svg">
  <defs
     id="defs9728" />
  <sodipodi:namedview
     id="namedview9726"
     pagecolor="#ffffff"
     bordercolor="#666666"
     borderopacity="1.0"
     inkscape:showpageshadow="2"
     inkscape:pageopacity="0.0"
     inkscape:pagecheckerboard="0"
     inkscape:deskcolor="#d1d1d1"
     showgrid="true"
     inkscape:zoom="0.59480855"
     inkscape:cx="449.72454"
     inkscape:cy="478.30516"
     inkscape:window-width="1920"
     inkscape:window-height="1048"
     inkscape:window-x="0"
     inkscape:window-y="0"
     inkscape:window-maximized="1"
     inkscape:current-layer="svg9724"
     showguides="true">
    <inkscape:grid
       type="xygrid"
       id="grid9972"
       originx="0"
       originy="0"
       spacingy="1"
       spacingx="1"
       units="px"
       visible="true" />
    <sodipodi:guide
       position="300,520"
       orientation="1,0"
       id="guide385"
       inkscape:locked="false" />
    <sodipodi:guide
       position="140,100"
       orientation="0,-1"
       id="guide1388"
       inkscape:locked="false" />
    <sodipodi:guide
       position="140,100"
       orientation="0,-1"
       id="guide2256"
       inkscape:locked="false" />
  </sodipodi:namedview>
  <path
     id="path345"
     style="color:#000000;fill:#000000;stroke-width:0.999999;stroke-linecap:round;stroke-linejoin:round;-inkscape-stroke:none;paint-order:stroke fill markers"
     d="M 279.99028,155.00005 C 214.35789,155.01575 157.13949,198.06968 137.4043,258.84184 85.007204,282.95033 50.076707,335.87922 50.000007,394.9473 V 395 c -2e-4,82.36894 67.631093,150.00008 149.999983,149.99998 h 0.01 324.91603 0.0742 5 v -0.25586 c 66.26706,-2.6822 120.00003,-57.86889 119.99977,-124.74413 2.6e-4,-66.99251 -53.92011,-122.25993 -120.34765,-124.76171 -21.13328,-40.26147 -63.3285,-67.22466 -110.64058,-67.23827 -0.055,-1.2e-4 -0.11069,-1.2e-4 -0.16609,0 -3.32011,0.0129 -6.6237,0.26325 -9.9218,0.53906 -26.5603,-44.66655 -75.21629,-73.52376 -128.91209,-73.53905 z m 0,79.99999 h 0.01 c 31.4553,0.0124 58.6946,20.59202 67.30079,50.84766 6.60421,23.20827 32.0973,35.33139 54.2675,25.80663 5.5355,-2.37864 11.4895,-3.61281 17.5137,-3.64648 22.0263,0.049 40.33482,15.40462 44.19923,37.0996 4.13749,23.21427 27.354,37.83199 50.07617,31.5293 3.81841,-1.05952 7.76038,-1.60163 11.72265,-1.62891 25.28835,0.0406 44.92379,19.69205 44.92369,44.99218 10e-5,25.31423 -19.65582,44.97734 -44.96484,44.99609 -165.03508,0.004 -170.03509,0.004 -325.03507,0.004 -39.1225,4e-5 -69.98049,-30.84933 -69.99808,-69.9668 0.05,-31.74891 21.02658,-59.13413 51.66988,-67.44725 15.3562,-4.16663 26.7832,-17.0377 29.1016,-32.7793 5.0972,-34.62846 34.2155,-59.78786 69.2148,-59.80663 z"
     sodipodi:nodetypes="sccssccccccccccssssccccccccccccs"
     inkscape:label="path345" />
</svg>
