<?xml version="1.0" encoding="UTF-8" standalone="no"?>
<svg
   viewBox="0 0 700 700"
   version="1.1"
   id="svg9724"
   sodipodi:docname="code.svg"
   inkscape:version="1.3.2 (091e20ef0f, 2023-11-25)"
   width="700"
   height="700"
   xmlns:inkscape="http://www.inkscape.org/namespaces/inkscape"
   xmlns:sodipodi="http://sodipodi.sourceforge.net/DTD/sodipodi-0.dtd"
   xmlns="http://www.w3.org/2000/svg"
   xmlns:svg="http://www.w3.org/2000/svg">
  <defs
     id="defs9728" />
  <sodipodi:namedview
     id="namedview9726"
     pagecolor="#ffffff"
     bordercolor="#666666"
     borderopacity="1.0"
     inkscape:showpageshadow="2"
     inkscape:pageopacity="0.0"
     inkscape:pagecheckerboard="0"
     inkscape:deskcolor="#d1d1d1"
     showgrid="true"
     inkscape:zoom="0.84118632"
     inkscape:cx="307.30409"
     inkscape:cy="430.93901"
     inkscape:window-width="1920"
     inkscape:window-height="1008"
     inkscape:window-x="0"
     inkscape:window-y="1080"
     inkscape:window-maximized="1"
     inkscape:current-layer="g10449"
     showguides="true">
    <inkscape:grid
       type="xygrid"
       id="grid9972"
       originx="0"
       originy="0"
       spacingy="1"
       spacingx="1"
       units="px"
       visible="true" />
    <sodipodi:guide
       position="-260,300"
       orientation="0,-1"
       id="guide383"
       inkscape:locked="false" />
    <sodipodi:guide
       position="200,470"
       orientation="1,0"
       id="guide385"
       inkscape:locked="false" />
    <sodipodi:guide
       position="240,520"
       orientation="0,-1"
       id="guide939"
       inkscape:locked="false" />
    <sodipodi:guide
       position="220,80"
       orientation="0,-1"
       id="guide941"
       inkscape:locked="false" />
  </sodipodi:namedview>
  <g
     id="g10449"
     transform="matrix(0.95173205,0,0,0.95115787,13.901174,12.168794)"
     style="stroke-width:1.05103">
    <path
       id="path298"
       style="stroke-width:1.05103;color:#000000;fill:#000000;stroke-linecap:round;-inkscape-stroke:none"
       d="M 235.56563 29.320037 A 42.041302 42.041302 0 0 0 206.46162 43.043031 L -3.6815636 274.34007 A 42.041302 42.041302 0 0 0 -5.6701255 277.20459 A 42.041302 42.041302 0 0 0 -8.7894384 281.70158 A 42.041302 42.041302 0 0 0 -11.118662 286.6421 A 42.041302 42.041302 0 0 0 -12.965624 291.77975 A 42.041302 42.041302 0 0 0 -13.938357 297.17203 A 42.041302 42.041302 0 0 0 -14.389836 302.61154 A 42.041302 42.041302 0 0 0 -13.938357 308.05309 A 42.041302 42.041302 0 0 0 -12.965624 313.43921 A 42.041302 42.041302 0 0 0 -11.118662 318.58302 A 42.041302 42.041302 0 0 0 -8.7894384 323.52149 A 42.041302 42.041302 0 0 0 -5.6701255 328.01848 A 42.041302 42.041302 0 0 0 -3.6815636 330.883 L 206.46162 562.18004 A 42.041302 42.041302 0 0 0 265.84964 565.02608 A 42.041302 42.041302 0 0 0 268.69601 505.63917 L 84.235858 302.61154 L 268.69601 99.585958 A 42.041302 42.041302 0 0 0 265.84964 40.196994 A 42.041302 42.041302 0 0 0 235.56563 29.320037 z M 427.9082 29.320037 A 42.041302 42.041302 0 0 0 397.62419 40.196994 A 42.041302 42.041302 0 0 0 394.77782 99.585958 L 579.23797 302.61154 L 394.77782 505.63917 A 42.041302 42.041302 0 0 0 397.62419 565.02608 A 42.041302 42.041302 0 0 0 457.01221 562.18004 L 667.05278 330.99594 L 667.06099 330.98772 A 42.041302 42.041302 0 0 0 667.0692 330.97746 L 667.15539 330.883 A 42.041302 42.041302 0 0 0 668.3354 329.45793 A 42.041302 42.041302 0 0 0 669.58107 327.95277 A 42.041302 42.041302 0 0 0 670.67078 326.36753 A 42.041302 42.041302 0 0 0 671.78511 324.73301 A 42.041302 42.041302 0 0 0 672.55057 323.36543 A 42.041302 42.041302 0 0 0 673.67927 321.33255 A 42.041302 42.041302 0 0 0 674.36675 319.78017 A 42.041302 42.041302 0 0 0 675.23688 317.80067 A 42.041302 42.041302 0 0 0 675.89768 315.83966 A 42.041302 42.041302 0 0 0 676.47024 314.12094 A 42.041302 42.041302 0 0 0 676.88683 312.36733 A 42.041302 42.041302 0 0 0 677.36499 310.32007 A 42.041302 42.041302 0 0 0 677.63382 308.40833 A 42.041302 42.041302 0 0 0 677.8965 306.50482 A 42.041302 42.041302 0 0 0 677.99911 304.36926 A 42.041302 42.041302 0 0 0 678.07709 302.61154 A 42.041302 42.041302 0 0 0 677.99911 300.85176 A 42.041302 42.041302 0 0 0 677.8965 298.71825 A 42.041302 42.041302 0 0 0 677.63382 296.81474 A 42.041302 42.041302 0 0 0 677.36499 294.903 A 42.041302 42.041302 0 0 0 676.88683 292.85574 A 42.041302 42.041302 0 0 0 676.47024 291.10213 A 42.041302 42.041302 0 0 0 675.89768 289.38341 A 42.041302 42.041302 0 0 0 675.23688 287.4224 A 42.041302 42.041302 0 0 0 674.43037 285.58459 A 42.041302 42.041302 0 0 0 673.67311 283.88025 A 42.041302 42.041302 0 0 0 672.60803 281.96031 A 42.041302 42.041302 0 0 0 671.78511 280.49006 A 42.041302 42.041302 0 0 0 670.67078 278.85554 A 42.041302 42.041302 0 0 0 669.58107 277.2703 A 42.041302 42.041302 0 0 0 668.3354 275.76514 A 42.041302 42.041302 0 0 0 667.15539 274.34007 L 667.0692 274.24561 L 667.06099 274.23535 A 42.041302 42.041302 0 0 0 667.05278 274.22713 L 457.01221 43.043031 A 42.041302 42.041302 0 0 0 427.9082 29.320037 z "
       transform="translate(21.407467,52.567365)" />
  </g>
</svg>
