<?xml version="1.0" encoding="UTF-8" standalone="no"?>
<svg
   viewBox="0 0 600 600"
   version="1.1"
   id="svg9724"
   sodipodi:docname="cut.svg"
   inkscape:version="1.2.2 (1:1.2.2+202212051550+b0a8486541)"
   width="600"
   height="600"
   xmlns:inkscape="http://www.inkscape.org/namespaces/inkscape"
   xmlns:sodipodi="http://sodipodi.sourceforge.net/DTD/sodipodi-0.dtd"
   xmlns="http://www.w3.org/2000/svg"
   xmlns:svg="http://www.w3.org/2000/svg">
  <defs
     id="defs9728" />
  <sodipodi:namedview
     id="namedview9726"
     pagecolor="#ffffff"
     bordercolor="#666666"
     borderopacity="1.0"
     inkscape:showpageshadow="2"
     inkscape:pageopacity="0.0"
     inkscape:pagecheckerboard="0"
     inkscape:deskcolor="#d1d1d1"
     showgrid="true"
     inkscape:zoom="0.84118632"
     inkscape:cx="342.96801"
     inkscape:cy="245.48664"
     inkscape:window-width="1920"
     inkscape:window-height="1009"
     inkscape:window-x="0"
     inkscape:window-y="1080"
     inkscape:window-maximized="1"
     inkscape:current-layer="g10449"
     showguides="true">
    <inkscape:grid
       type="xygrid"
       id="grid9972"
       originx="0"
       originy="0" />
    <sodipodi:guide
       position="-260,300"
       orientation="0,-1"
       id="guide383"
       inkscape:locked="false" />
    <sodipodi:guide
       position="300,520"
       orientation="1,0"
       id="guide385"
       inkscape:locked="false" />
    <sodipodi:guide
       position="240,520"
       orientation="0,-1"
       id="guide939"
       inkscape:locked="false" />
    <sodipodi:guide
       position="220,80"
       orientation="0,-1"
       id="guide941"
       inkscape:locked="false" />
    <sodipodi:guide
       position="470,130"
       orientation="-0.70710678,-0.70710678"
       id="guide960"
       inkscape:locked="false" />
    <sodipodi:guide
       position="210,210"
       orientation="0.70710678,-0.70710678"
       id="guide962"
       inkscape:locked="false" />
  </sodipodi:namedview>

  <g
     id="g10449"
     transform="matrix(0.95173205,0,0,0.95115787,13.901174,12.168794)"
     style="stroke-width:1.05103">
    <path
       id="path294-3"
       style="color:#000000;fill:#020202;stroke-linecap:round;stroke-linejoin:round;-inkscape-stroke:none;paint-order:stroke fill markers"
       d="M 100.97462 -12.787504 C 37.500351 -12.787504 -14.612341 39.366977 -14.612341 102.8487 C -14.612341 166.33042 37.500351 218.49106 100.97462 218.49106 C 123.26336 218.49106 144.13783 212.03892 161.86073 200.9446 L 252.96519 292.102 L 248.48528 292.102 A 10.5103 10.5103 0 0 0 237.97402 302.61139 A 10.5103 10.5103 0 0 0 248.48528 313.12079 L 252.96519 313.12079 L 161.86073 404.27819 C 144.13783 393.18387 123.26336 386.73173 100.97462 386.73173 C 37.500351 386.73173 -14.612341 438.89236 -14.612341 502.37409 C -14.612341 565.8558 37.500351 618.01029 100.97462 618.01029 C 164.44888 618.01029 216.56568 565.8558 216.56568 502.37409 C 216.56568 480.07229 210.11237 459.17896 199.01544 441.443 L 289.47141 350.93448 L 544.05043 605.68567 A 42.041351 42.041351 0 0 0 573.77215 618.01029 A 42.041351 42.041351 0 0 0 603.50412 605.70826 A 42.041351 42.041351 0 0 0 603.52465 546.24948 L 370.55507 313.12079 L 374.60813 313.12079 A 10.5103 10.5103 0 0 0 385.11939 302.61139 A 10.5103 10.5103 0 0 0 374.60813 292.102 L 370.55507 292.102 L 603.52465 58.973307 A 42.041351 42.041351 0 0 0 603.50412 -0.48547435 A 42.041351 42.041351 0 0 0 573.77215 -12.787504 A 42.041351 42.041351 0 0 0 544.05043 -0.46288675 L 289.47141 254.2883 L 199.01544 163.77772 C 210.11237 146.04177 216.56568 125.15049 216.56568 102.8487 C 216.56568 39.366977 164.44888 -12.787504 100.97462 -12.787504 z M 100.97462 50.272973 C 130.34718 50.272973 153.5022 73.427543 153.5022 102.8487 C 153.5022 132.26985 130.34718 155.42853 100.97462 155.42853 C 71.602067 155.42853 48.449083 132.26985 48.449083 102.8487 C 48.449083 73.427543 71.602067 50.272973 100.97462 50.272973 z M -3.7645203 292.102 A 10.5103 10.5103 0 0 0 -14.273732 302.61139 A 10.5103 10.5103 0 0 0 -3.7645203 313.12079 L 17.258006 313.12079 L 38.278481 313.12079 A 10.5103 10.5103 0 0 0 48.789744 302.61139 A 10.5103 10.5103 0 0 0 38.278481 292.102 L 17.258006 292.102 L -3.7645203 292.102 z M 80.31943 292.102 A 10.5103 10.5103 0 0 0 69.808167 302.61139 A 10.5103 10.5103 0 0 0 80.31943 313.12079 L 101.3399 313.12079 L 122.36038 313.12079 A 10.5103 10.5103 0 0 0 132.87164 302.61139 A 10.5103 10.5103 0 0 0 122.36038 292.102 L 101.3399 292.102 L 80.31943 292.102 z M 164.40133 292.102 A 10.5103 10.5103 0 0 0 153.89212 302.61139 A 10.5103 10.5103 0 0 0 164.40133 313.12079 L 185.4218 313.12079 L 206.44433 313.12079 A 10.5103 10.5103 0 0 0 216.95354 302.61139 A 10.5103 10.5103 0 0 0 206.44433 292.102 L 185.4218 292.102 L 164.40133 292.102 z M 416.64908 292.102 A 10.5103 10.5103 0 0 0 406.13781 302.61139 A 10.5103 10.5103 0 0 0 416.64908 313.12079 L 437.66955 313.12079 L 458.69003 313.12079 A 10.5103 10.5103 0 0 0 469.20129 302.61139 A 10.5103 10.5103 0 0 0 458.69003 292.102 L 437.66955 292.102 L 416.64908 292.102 z M 500.73303 292.102 A 10.5103 10.5103 0 0 0 490.21971 302.61139 A 10.5103 10.5103 0 0 0 500.73303 313.12079 L 521.75145 313.12079 L 542.77398 313.12079 A 10.5103 10.5103 0 0 0 553.28319 302.61139 A 10.5103 10.5103 0 0 0 542.77398 292.102 L 521.75145 292.102 L 500.73303 292.102 z M 584.81492 292.102 A 10.5103 10.5103 0 0 0 574.30366 302.61139 A 10.5103 10.5103 0 0 0 584.81492 313.12079 L 604.97964 313.12079 A 10.5103 10.5103 0 0 0 615.4909 302.61139 A 10.5103 10.5103 0 0 0 604.97964 292.102 L 584.81492 292.102 z M 100.97462 449.79426 C 130.34718 449.79426 153.5022 472.95294 153.5022 502.37409 C 153.5022 531.79524 130.34718 554.94981 100.97462 554.94981 C 71.602067 554.94981 48.449083 531.79524 48.449083 502.37409 C 48.449083 472.95294 71.602067 449.79426 100.97462 449.79426 z " />
  </g>
</svg>
