<?xml version="1.0" encoding="UTF-8" standalone="no"?>
<svg
   viewBox="0 0 700 700"
   version="1.1"
   id="svg9724"
   sodipodi:docname="database.svg"
   inkscape:version="1.3.2 (091e20ef0f, 2023-11-25)"
   width="700"
   height="700"
   xmlns:inkscape="http://www.inkscape.org/namespaces/inkscape"
   xmlns:sodipodi="http://sodipodi.sourceforge.net/DTD/sodipodi-0.dtd"
   xmlns="http://www.w3.org/2000/svg"
   xmlns:svg="http://www.w3.org/2000/svg">
  <defs
     id="defs9728" />
  <sodipodi:namedview
     id="namedview9726"
     pagecolor="#ffffff"
     bordercolor="#666666"
     borderopacity="1.0"
     inkscape:showpageshadow="2"
     inkscape:pageopacity="0.0"
     inkscape:pagecheckerboard="0"
     inkscape:deskcolor="#d1d1d1"
     showgrid="true"
     inkscape:zoom="0.42059316"
     inkscape:cx="148.59966"
     inkscape:cy="296.01052"
     inkscape:window-width="1920"
     inkscape:window-height="1048"
     inkscape:window-x="0"
     inkscape:window-y="0"
     inkscape:window-maximized="1"
     inkscape:current-layer="svg9724"
     showguides="true">
    <inkscape:grid
       type="xygrid"
       id="grid9972"
       originx="0"
       originy="0"
       spacingy="1"
       spacingx="1"
       units="px"
       visible="true" />
    <sodipodi:guide
       position="300,-90"
       orientation="1,0"
       id="guide385"
       inkscape:locked="false" />
    <sodipodi:guide
       position="140,100"
       orientation="0,-1"
       id="guide1388"
       inkscape:locked="false" />
    <sodipodi:guide
       position="140,100"
       orientation="0,-1"
       id="guide2256"
       inkscape:locked="false" />
    <sodipodi:guide
       position="0,475"
       orientation="0,-1"
       id="guide1920"
       inkscape:locked="false" />
  </sodipodi:namedview>
  <g
     id="g1"
     transform="translate(50,50)">
    <path
       id="path3428"
       style="color:#000000;fill:#010101;stroke-linejoin:round;-inkscape-stroke:none;paint-order:stroke fill markers"
       d="M 300,0 C 221.30245,0 150.09841,8.0113158 97.068359,21.535156 70.553346,28.297076 48.605538,36.277916 31.677734,46.484375 16.579982,55.587421 3.2445893,67.928721 0.53125,85 H 0 v 5 c 0,5.160045 3.6392602,12.94345 17.03125,22.83789 13.391991,9.89444 35.08817,20.16697 62.660156,28.7832 C 134.83535,158.85361 213.32376,170 300,170 c 86.67624,0 165.16467,-11.14639 220.30859,-28.37891 27.57201,-8.61623 49.26816,-18.88876 62.66016,-28.7832 C 596.36075,102.94345 600,95.160045 600,90 h -0.12695 C 599.19452,70.318664 584.84711,56.447884 568.32227,46.484375 551.39442,36.277916 529.44664,28.297076 502.93164,21.535156 449.90159,8.0113158 378.69755,0 300,0 Z M 0,149.67969 v 84.42773 c 0.70499641,5.11241 4.6599347,12.19704 16.722656,21.10938 13.392004,9.89445 35.088142,20.16696 62.660156,28.7832 55.143998,17.23251 133.632248,28.37891 220.308598,28.37891 86.67633,0 165.16461,-11.1464 220.30859,-28.37891 27.57201,-8.61624 49.26815,-18.88875 62.66016,-28.7832 13.39199,-9.89445 17.03125,-17.67785 17.03125,-22.83789 H 600 V 149.67969 C 581.93283,161.57337 559.1282,171.3983 532.24023,179.80078 471.56758,198.761 390.05399,210 300,210 209.94601,210 128.43244,198.761 67.759766,179.80078 40.871811,171.3983 18.067172,161.57337 0,149.67969 Z m 600,142.11719 c -9.74852,6.45522 -20.81835,12.33253 -33.25,17.67187 -10.68049,4.58723 -22.30997,8.80206 -34.81836,12.71094 -60.67274,18.96023 -142.18615,30.19922 -232.24023,30.19922 -90.05408,0 -171.5675,-11.23898 -232.240238,-30.19922 C 40.720883,313.82647 18.016718,304.0712 0,292.27148 V 380 c 0,5.16005 3.6392334,12.94343 17.03125,22.83789 13.392017,9.89446 35.088114,20.16695 62.660156,28.7832 C 134.83545,448.85363 213.32358,460 300,460 c 86.67642,0 165.16455,-11.14637 220.30859,-28.37891 27.57209,-8.61625 49.26807,-18.88874 62.66016,-28.7832 C 596.36074,392.94343 600,385.16005 600,380 Z M 0,439.67969 V 508.59375 515 h 0.53125 c 2.7133447,17.0713 16.048702,29.41257 31.146484,38.51562 16.927838,10.20648 38.875558,18.1873 65.390625,24.94922 C 150.09851,591.98873 221.30229,600 300,600 c 78.69771,0 149.90149,-8.01127 202.93164,-21.53516 26.51506,-6.76192 48.46276,-14.74274 65.39063,-24.94922 C 583.42003,544.41257 596.7554,532.0713 599.46875,515 H 600 v -6.40625 -68.91406 c -18.06722,11.8937 -40.8717,21.71859 -67.75977,30.12109 C 471.56747,488.76104 390.05417,500 300,500 209.94583,500 128.43256,488.76104 67.759766,469.80078 40.871757,461.39828 18.067208,451.57339 0,439.67969 Z" />
  </g>
</svg>
