<?xml version="1.0" encoding="UTF-8" standalone="no"?>
<svg
   viewBox="0 0 700 700"
   version="1.1"
   id="svg9724"
   sodipodi:docname="file.svg"
   inkscape:version="1.3.2 (091e20ef0f, 2023-11-25)"
   width="700"
   height="700"
   xmlns:inkscape="http://www.inkscape.org/namespaces/inkscape"
   xmlns:sodipodi="http://sodipodi.sourceforge.net/DTD/sodipodi-0.dtd"
   xmlns="http://www.w3.org/2000/svg"
   xmlns:svg="http://www.w3.org/2000/svg">
  <defs
     id="defs9728" />
  <sodipodi:namedview
     id="namedview9726"
     pagecolor="#ffffff"
     bordercolor="#666666"
     borderopacity="1.0"
     inkscape:showpageshadow="2"
     inkscape:pageopacity="0.0"
     inkscape:pagecheckerboard="0"
     inkscape:deskcolor="#d1d1d1"
     showgrid="true"
     inkscape:zoom="0.84118632"
     inkscape:cx="449.95977"
     inkscape:cy="319.19207"
     inkscape:window-width="1920"
     inkscape:window-height="1048"
     inkscape:window-x="0"
     inkscape:window-y="0"
     inkscape:window-maximized="1"
     inkscape:current-layer="svg9724"
     showguides="true">
    <inkscape:grid
       type="xygrid"
       id="grid9972"
       originx="0"
       originy="0"
       spacingy="1"
       spacingx="1"
       units="px"
       visible="true" />
    <sodipodi:guide
       position="-260,300"
       orientation="0,-1"
       id="guide383"
       inkscape:locked="false" />
    <sodipodi:guide
       position="300,520"
       orientation="1,0"
       id="guide385"
       inkscape:locked="false" />
    <sodipodi:guide
       position="240,520"
       orientation="0,-1"
       id="guide939"
       inkscape:locked="false" />
    <sodipodi:guide
       position="220,80"
       orientation="0,-1"
       id="guide941"
       inkscape:locked="false" />
  </sodipodi:namedview>
  <path
     id="rect348"
     style="color:#000000;fill:#020202;stroke-linecap:round;stroke-linejoin:round;-inkscape-stroke:none;paint-order:stroke fill markers"
     d="m 160,50 c -22.09041,0.0022 -39.99779,17.909591 -40,40 v 520 c 0.002,22.09042 17.90959,39.99779 40,40 h 380 c 22.09042,-0.002 39.99779,-17.90958 40,-40 V 330 250 c 3e-5,-10.60874 -4.21388,-20.78309 -11.71484,-28.28516 l -160,-159.999996 C 400.78309,54.213875 390.60874,49.999969 380,50 h -90 z m 40,80 h 90 50 v 120 c 0.002,22.09043 17.90957,39.99782 40,40 h 120 v 40 240 H 200 Z m 70,220 a 40,40 0 0 0 -40,40 40,40 0 0 0 40,40 h 160 a 40,40 0 0 0 40,-40 40,40 0 0 0 -40,-40 z m 0,110 a 40,40 0 0 0 -40,40 40,40 0 0 0 40,40 h 160 a 40,40 0 0 0 40,-40 40,40 0 0 0 -40,-40 z" />
</svg>
