<?xml version="1.0" encoding="UTF-8" standalone="no"?>
<svg
   viewBox="0 0 700 700"
   version="1.1"
   id="svg9724"
   sodipodi:docname="folder.svg"
   inkscape:version="1.3.2 (091e20ef0f, 2023-11-25)"
   width="700"
   height="700"
   xmlns:inkscape="http://www.inkscape.org/namespaces/inkscape"
   xmlns:sodipodi="http://sodipodi.sourceforge.net/DTD/sodipodi-0.dtd"
   xmlns="http://www.w3.org/2000/svg"
   xmlns:svg="http://www.w3.org/2000/svg">
  <defs
     id="defs9728" />
  <sodipodi:namedview
     id="namedview9726"
     pagecolor="#ffffff"
     bordercolor="#666666"
     borderopacity="1.0"
     inkscape:showpageshadow="2"
     inkscape:pageopacity="0.0"
     inkscape:pagecheckerboard="0"
     inkscape:deskcolor="#d1d1d1"
     showgrid="true"
     inkscape:zoom="0.84118632"
     inkscape:cx="269.26258"
     inkscape:cy="427.37262"
     inkscape:window-width="1920"
     inkscape:window-height="1048"
     inkscape:window-x="0"
     inkscape:window-y="0"
     inkscape:window-maximized="1"
     inkscape:current-layer="svg9724"
     showguides="true">
    <inkscape:grid
       type="xygrid"
       id="grid9972"
       originx="0"
       originy="0"
       spacingy="1"
       spacingx="1"
       units="px"
       visible="true" />
    <sodipodi:guide
       position="300,520"
       orientation="1,0"
       id="guide385"
       inkscape:locked="false" />
    <sodipodi:guide
       position="140,100"
       orientation="0,-1"
       id="guide1388"
       inkscape:locked="false" />
    <sodipodi:guide
       position="140,100"
       orientation="0,-1"
       id="guide2256"
       inkscape:locked="false" />
  </sodipodi:namedview>
  <g
     id="g1"
     transform="translate(50,50)">
    <path
       style="color:#000000;fill:#000000;stroke-linejoin:round;-inkscape-stroke:none;paint-order:stroke fill markers"
       d="M 110,30 C 49.751939,30 0,79.751941 0,140 v 120 200 c 0,60.24806 49.751939,110 110,110 h 380 c 60.24806,0 110,-49.75194 110,-110 V 260 C 600,199.75194 550.24806,150 490,150 H 312.64844 L 294.29883,119.41992 C 285.95794,105.51843 278.27415,87.198863 263.88672,68.300781 249.49928,49.402699 222.02412,30 190,30 Z m 83.61523,79.96094 c 2.43866,0.0758 2.172,0.95745 6.61914,6.79883 5.92953,7.7885 13.85559,24.46829 25.4668,43.82031 l 30,50 A 40.004,40.004 0 0 0 290,230 h 200 c 17.31178,0 30,12.68822 30,30 v 200 c 0,17.31178 -12.68822,30 -30,30 H 110 C 92.688216,490 80,477.31178 80,460 V 260 140 c 0,-17.31178 12.688216,-30 30,-30 h 80 c 1.68895,0 2.80235,-0.0643 3.61523,-0.0391 z"
       id="rect343" />
    <path
       style="color:#000000;fill:#000000;stroke-width:0.999999;stroke-linejoin:round;-inkscape-stroke:none;paint-order:stroke fill markers"
       d="m 440,385 c -18.99829,0 -35,16.00171 -35,35 0,18.99829 16.00171,35 35,35 18.99829,0 35,-16.00171 35,-35 0,-18.99829 -16.00171,-35 -35,-35 z"
       id="path1311"
       sodipodi:nodetypes="sssss" />
    <path
       style="color:#000000;fill:#000000;stroke-width:0.999999;stroke-linejoin:round;-inkscape-stroke:none;paint-order:stroke fill markers"
       d="m 340,385 c -18.99829,0 -35,16.00171 -35,35 0,18.99829 16.00171,35 35,35 18.99829,0 35,-16.00171 35,-35 0,-18.99829 -16.00171,-35 -35,-35 z"
       id="path1311-3"
       sodipodi:nodetypes="sssss" />
  </g>
</svg>
