<?xml version="1.0" encoding="UTF-8" standalone="no"?>
<svg
   viewBox="0 0 700 700"
   version="1.1"
   id="svg9724"
   sodipodi:docname="git-tree.svg"
   inkscape:version="1.3.2 (091e20ef0f, 2023-11-25)"
   width="700"
   height="700"
   xmlns:inkscape="http://www.inkscape.org/namespaces/inkscape"
   xmlns:sodipodi="http://sodipodi.sourceforge.net/DTD/sodipodi-0.dtd"
   xmlns="http://www.w3.org/2000/svg"
   xmlns:svg="http://www.w3.org/2000/svg">
  <path
     id="path5"
     style="color:#000000;fill:#000000;stroke-linecap:round;stroke-linejoin:round;-inkscape-stroke:none;paint-order:stroke fill markers"
     d="M 170 0 C 119.3876 0 77.5 41.887599 77.5 92.5 C 77.5 130.87217 101.58693 164.20959 135.28906 178.09961 C 139.12248 237.86942 185.81645 286.39728 247.54297 310.84766 C 267.5473 318.77153 288.57901 324.23397 310 327.25977 L 310 424.25586 C 279.0911 439.3263 257.5 471.16332 257.5 507.5 C 257.5 558.1124 299.3876 600 350 600 C 400.6124 600 442.5 558.1124 442.5 507.5 C 442.5 471.16332 420.9089 439.3263 390 424.25586 L 390 327.25 C 411.27313 324.24464 432.16457 318.84515 452.04883 311.00977 C 513.97642 286.60721 560.86692 238.04372 564.71094 178.09961 C 598.41307 164.20959 622.5 130.87217 622.5 92.5 C 622.5 41.887599 580.6124 0 530 0 C 479.3876 0 437.5 41.887599 437.5 92.5 C 437.5 126.77675 456.72484 157.03151 484.84766 173.00391 C 483.31246 194.42273 464.60496 220.0756 422.7207 236.58008 C 378.95485 253.826 320.6939 253.77667 277.00391 236.4707 C 235.28299 219.94471 216.68317 194.39405 215.15039 173.00586 C 243.27447 157.03381 262.5 126.77769 262.5 92.5 C 262.5 41.887599 220.6124 0 170 0 z "
     transform="translate(0,50)" />
  <defs
     id="defs9728" />
  <sodipodi:namedview
     id="namedview9726"
     pagecolor="#ffffff"
     bordercolor="#666666"
     borderopacity="1.0"
     inkscape:showpageshadow="2"
     inkscape:pageopacity="0.0"
     inkscape:pagecheckerboard="0"
     inkscape:deskcolor="#d1d1d1"
     showgrid="true"
     inkscape:zoom="0.84118632"
     inkscape:cx="354.85598"
     inkscape:cy="295.41612"
     inkscape:window-width="1920"
     inkscape:window-height="1008"
     inkscape:window-x="0"
     inkscape:window-y="1080"
     inkscape:window-maximized="1"
     inkscape:current-layer="svg9724"
     showguides="true">
    <inkscape:grid
       type="xygrid"
       id="grid9972"
       originx="0"
       originy="0"
       spacingy="1"
       spacingx="1"
       units="px"
       visible="true" />
    <sodipodi:guide
       position="-260,300"
       orientation="0,-1"
       id="guide383"
       inkscape:locked="false" />
    <sodipodi:guide
       position="800,650"
       orientation="0,1"
       id="guide939"
       inkscape:locked="false"
       inkscape:label=""
       inkscape:color="rgb(0,134,229)" />
    <sodipodi:guide
       position="220,50"
       orientation="0,1"
       id="guide941"
       inkscape:locked="false"
       inkscape:label=""
       inkscape:color="rgb(0,134,229)" />
  </sodipodi:namedview>
</svg>
