<?xml version="1.0" encoding="UTF-8" standalone="no"?>
<svg
   viewBox="0 0 700 700"
   version="1.1"
   id="svg9724"
   sodipodi:docname="git-pull-request.svg"
   inkscape:version="1.3.2 (091e20ef0f, 2023-11-25)"
   width="700"
   height="700"
   xmlns:inkscape="http://www.inkscape.org/namespaces/inkscape"
   xmlns:sodipodi="http://sodipodi.sourceforge.net/DTD/sodipodi-0.dtd"
   xmlns="http://www.w3.org/2000/svg"
   xmlns:svg="http://www.w3.org/2000/svg">
  <defs
     id="defs9728" />
  <sodipodi:namedview
     id="namedview9726"
     pagecolor="#ffffff"
     bordercolor="#666666"
     borderopacity="1.0"
     inkscape:showpageshadow="2"
     inkscape:pageopacity="0.0"
     inkscape:pagecheckerboard="0"
     inkscape:deskcolor="#d1d1d1"
     showgrid="true"
     inkscape:zoom="0.84118632"
     inkscape:cx="541.49716"
     inkscape:cy="295.41612"
     inkscape:window-width="1920"
     inkscape:window-height="1008"
     inkscape:window-x="0"
     inkscape:window-y="1080"
     inkscape:window-maximized="1"
     inkscape:current-layer="svg9724"
     showguides="true">
    <inkscape:grid
       type="xygrid"
       id="grid9972"
       originx="0"
       originy="0"
       spacingy="1"
       spacingx="1"
       units="px"
       visible="true" />
    <sodipodi:guide
       position="-260,300"
       orientation="0,-1"
       id="guide383"
       inkscape:locked="false" />
    <sodipodi:guide
       position="200,470"
       orientation="1,0"
       id="guide385"
       inkscape:locked="false" />
    <sodipodi:guide
       position="800,650"
       orientation="0,1"
       id="guide939"
       inkscape:locked="false"
       inkscape:label=""
       inkscape:color="rgb(0,134,229)" />
    <sodipodi:guide
       position="220,50"
       orientation="0,1"
       id="guide941"
       inkscape:locked="false"
       inkscape:label=""
       inkscape:color="rgb(0,134,229)" />
    <sodipodi:guide
       position="90,540"
       orientation="1,0"
       id="guide2"
       inkscape:locked="false" />
  </sodipodi:namedview>
  <path
     id="path4"
     style="color:#000000;fill:#000000;stroke-linecap:round;stroke-linejoin:round;-inkscape-stroke:none;paint-order:stroke fill markers"
     d="M 388.4082 50.082031 A 40.000149 40.000149 0 0 0 382.13281 50.173828 A 40.000149 40.000149 0 0 0 355.0625 64.470703 L 309.4668 119.4707 A 40.000149 40.000149 0 0 0 307.60742 122.16016 A 40.000149 40.000149 0 0 0 305.63867 125.00781 A 40.000149 40.000149 0 0 0 304.12109 128.21484 A 40.000149 40.000149 0 0 0 302.69531 131.32031 A 40.000149 40.000149 0 0 0 301.76367 134.71094 A 40.000149 40.000149 0 0 0 300.88672 138.06055 A 40.000149 40.000149 0 0 0 300.56641 141.5 A 40.000149 40.000149 0 0 0 300.28125 145 A 40.000149 40.000149 0 0 0 300.56641 148.5 A 40.000149 40.000149 0 0 0 300.88672 151.93945 A 40.000149 40.000149 0 0 0 301.76367 155.28906 A 40.000149 40.000149 0 0 0 302.69531 158.67969 A 40.000149 40.000149 0 0 0 304.12109 161.78516 A 40.000149 40.000149 0 0 0 305.63867 164.99219 A 40.000149 40.000149 0 0 0 307.60742 167.83984 A 40.000149 40.000149 0 0 0 309.4668 170.5293 L 355.0625 225.5293 A 40.000149 40.000149 0 0 0 411.38477 230.79492 A 40.000149 40.000149 0 0 0 423.40625 186.27148 A 40 40 0 0 0 427.28906 186.51367 C 457.71332 185.42454 471.88266 191.37411 477.46289 195.72852 C 482.87714 199.95339 485.753 204.78468 487 218.7168 L 487 468.21484 C 453.88464 483.1466 430.5 516.5671 430.5 554.89648 C 430.5 606.88954 473.50694 649.89648 525.5 649.89648 C 577.49306 649.89648 620.5 606.88954 620.5 554.89648 C 620.5 517.73269 598.52159 485.17246 567 469.61523 L 567 217.04688 L 566.98242 217.04688 A 40 40 0 0 0 566.875 213.63477 C 564.57616 184.56799 552.8335 153.06822 526.67773 132.6582 C 503.79145 114.79944 474.39528 107.07907 439.64453 106.42188 C 434.68014 106.32798 429.6053 106.37908 424.42578 106.56445 A 40 40 0 0 0 422.11719 106.875 A 40.000149 40.000149 0 0 0 411.38477 59.205078 A 40.000149 40.000149 0 0 0 388.4082 50.082031 z " />
  <path
     id="path1-3"
     style="stroke-width:54.4251;stroke-linecap:round;stroke-linejoin:round"
     d="m 176,50.102539 c -51.99311,0 -95,43.00689 -95,95.000001 0,37.74458 22.67407,70.73501 54.98828,85.99219 v 237.125 C 102.87921,483.15415 79.5,516.57265 79.5,554.89746 c 0,51.99311 43.00689,95 95,95 51.99311,0 95,-43.00689 95,-95 0,-37.15828 -21.97227,-69.71539 -53.48633,-85.27539 V 231.09473 C 248.32703,215.83722 271,182.84649 271,145.10254 271,93.109429 227.99311,50.102539 176,50.102539 Z" />
</svg>
