<?xml version="1.0" encoding="UTF-8" standalone="no"?>
<svg
   viewBox="0 0 700 700"
   version="1.1"
   id="svg9724"
   sodipodi:docname="git-pull-request-closed.svg"
   inkscape:version="1.3.2 (091e20ef0f, 2023-11-25)"
   width="700"
   height="700"
   xmlns:inkscape="http://www.inkscape.org/namespaces/inkscape"
   xmlns:sodipodi="http://sodipodi.sourceforge.net/DTD/sodipodi-0.dtd"
   xmlns="http://www.w3.org/2000/svg"
   xmlns:svg="http://www.w3.org/2000/svg">
  <defs
     id="defs9728" />
  <sodipodi:namedview
     id="namedview9726"
     pagecolor="#ffffff"
     bordercolor="#666666"
     borderopacity="1.0"
     inkscape:showpageshadow="2"
     inkscape:pageopacity="0.0"
     inkscape:pagecheckerboard="0"
     inkscape:deskcolor="#d1d1d1"
     showgrid="true"
     inkscape:zoom="0.84118632"
     inkscape:cx="312.05928"
     inkscape:cy="332.26884"
     inkscape:window-width="1920"
     inkscape:window-height="1008"
     inkscape:window-x="0"
     inkscape:window-y="1080"
     inkscape:window-maximized="1"
     inkscape:current-layer="svg9724"
     showguides="true">
    <inkscape:grid
       type="xygrid"
       id="grid9972"
       originx="0"
       originy="0"
       spacingy="1"
       spacingx="1"
       units="px"
       visible="true" />
    <sodipodi:guide
       position="-260,300"
       orientation="0,-1"
       id="guide383"
       inkscape:locked="false" />
    <sodipodi:guide
       position="200,470"
       orientation="1,0"
       id="guide385"
       inkscape:locked="false" />
    <sodipodi:guide
       position="800,650"
       orientation="0,1"
       id="guide939"
       inkscape:locked="false"
       inkscape:label=""
       inkscape:color="rgb(0,134,229)" />
    <sodipodi:guide
       position="220,50"
       orientation="0,1"
       id="guide941"
       inkscape:locked="false"
       inkscape:label=""
       inkscape:color="rgb(0,134,229)" />
    <sodipodi:guide
       position="90,540"
       orientation="1,0"
       id="guide2"
       inkscape:locked="false" />
    <sodipodi:guide
       position="314.22482,409.83403"
       orientation="0,-1"
       id="guide3"
       inkscape:locked="false" />
    <sodipodi:guide
       position="525.37913,146.88085"
       orientation="1,0"
       id="guide4"
       inkscape:locked="false" />
  </sodipodi:namedview>
  <g
     id="g6"
     transform="translate(-2.4403079,0.05127002)">
    <path
       id="path1-3"
       style="stroke-width:54.4251;stroke-linecap:round;stroke-linejoin:round"
       d="m 176,50.102539 c -51.99311,0 -95,43.00689 -95,95.000001 0,37.74458 22.67407,70.73501 54.98828,85.99219 v 237.125 C 102.87921,483.15415 79.5,516.57265 79.5,554.89746 c 0,51.99311 43.00689,95 95,95 51.99311,0 95,-43.00689 95,-95 0,-37.15828 -21.97227,-69.71539 -53.48633,-85.27539 V 231.09473 C 248.32703,215.83722 271,182.84649 271,145.10254 271,93.109429 227.99311,50.102539 176,50.102539 Z" />
    <path
       id="path4"
       style="color:#000000;fill:#000000;stroke-linecap:round;stroke-linejoin:round;-inkscape-stroke:none;paint-order:stroke fill markers"
       d="m 465.37891,50 a 40.000149,40.000149 0 0 0 -28.28321,11.714844 40.000149,40.000149 0 0 0 0,56.570316 L 468.81055,150 437.0957,181.71484 a 40.000149,40.000149 0 0 0 0,56.57032 40.000149,40.000149 0 0 0 56.56836,0 l 31.71485,-31.71485 31.71679,31.71485 a 40.000149,40.000149 0 0 0 56.56836,0 40.000149,40.000149 0 0 0 0,-56.57032 L 581.94922,150 613.66406,118.28516 a 40.000149,40.000149 0 0 0 0,-56.570316 A 40.000149,40.000149 0 0 0 585.37891,50 40.000149,40.000149 0 0 0 557.0957,61.714844 L 525.37891,93.429688 493.66406,61.714844 A 40.000149,40.000149 0 0 0 465.37891,50 Z" />
    <path
       id="path1-3-7"
       style="stroke-width:54.4251;stroke-linecap:round;stroke-linejoin:round"
       d="m 487,259.66463 v 208.54924 c -33.11539,14.93177 -56.5,48.35417 -56.5,86.68359 0,51.99311 43.00689,95 95,95 51.99311,0 95,-43.00689 95,-95 0,-37.16383 -21.97838,-69.72596 -53.5,-85.2832 v -210.076 z"
       sodipodi:nodetypes="ccsssccc" />
  </g>
</svg>
