<?xml version="1.0" encoding="UTF-8" standalone="no"?>
<svg
   viewBox="0 0 700 700"
   version="1.1"
   id="svg9724"
   sodipodi:docname="git-branch.svg"
   inkscape:version="1.3.2 (091e20ef0f, 2023-11-25)"
   width="700"
   height="700"
   xmlns:inkscape="http://www.inkscape.org/namespaces/inkscape"
   xmlns:sodipodi="http://sodipodi.sourceforge.net/DTD/sodipodi-0.dtd"
   xmlns="http://www.w3.org/2000/svg"
   xmlns:svg="http://www.w3.org/2000/svg">
  <defs
     id="defs9728" />
  <sodipodi:namedview
     id="namedview9726"
     pagecolor="#ffffff"
     bordercolor="#666666"
     borderopacity="1.0"
     inkscape:showpageshadow="2"
     inkscape:pageopacity="0.0"
     inkscape:pagecheckerboard="0"
     inkscape:deskcolor="#d1d1d1"
     showgrid="true"
     inkscape:zoom="0.84118632"
     inkscape:cx="370.31035"
     inkscape:cy="421.42863"
     inkscape:window-width="1920"
     inkscape:window-height="1008"
     inkscape:window-x="0"
     inkscape:window-y="1080"
     inkscape:window-maximized="1"
     inkscape:current-layer="svg9724"
     showguides="true">
    <inkscape:grid
       type="xygrid"
       id="grid9972"
       originx="0"
       originy="0"
       spacingy="1"
       spacingx="1"
       units="px"
       visible="true" />
    <sodipodi:guide
       position="-260,300"
       orientation="0,-1"
       id="guide383"
       inkscape:locked="false" />
    <sodipodi:guide
       position="200,470"
       orientation="1,0"
       id="guide385"
       inkscape:locked="false" />
    <sodipodi:guide
       position="800,650"
       orientation="0,1"
       id="guide939"
       inkscape:locked="false"
       inkscape:label=""
       inkscape:color="rgb(0,134,229)" />
    <sodipodi:guide
       position="220,50"
       orientation="0,1"
       id="guide941"
       inkscape:locked="false"
       inkscape:label=""
       inkscape:color="rgb(0,134,229)" />
    <sodipodi:guide
       position="105,490"
       orientation="1,0"
       id="guide2"
       inkscape:locked="false" />
  </sodipodi:namedview>
  <path
     id="path6"
     style="color:#000000;fill:#000000;stroke-linecap:round;stroke-linejoin:round;-inkscape-stroke:none;paint-order:stroke fill markers"
     d="m 190,50 c -7.53208,0 -14.8665,0.927218 -21.91797,2.628906 a 71.940921,71.950726 0 0 0 -0.31445,0.07422 C 126.29932,62.862231 95,100.65072 95,145 c 0,36.36484 21.05172,68.31108 51.48828,84.24414 V 470.75586 C 116.05172,486.68892 95,518.63516 95,555 c 0,44.34928 31.29932,82.13777 72.76758,92.29688 a 71.940921,71.950726 0 0 0 0.31445,0.0742 C 175.1335,649.07278 182.46792,650 190,650 c 32.97403,0 62.31554,-17.31101 79.38281,-43.22852 31.51302,-9.18304 68.84581,-24.69509 105.74219,-51.33203 C 449.52516,501.7271 520.57147,402.74546 542.82422,234.04297 578.91764,220.51846 605,185.48771 605,145 605,93.00689 561.99311,50 510,50 c -51.99311,0 -95,43.00689 -95,95 0,35.07437 19.58619,66.03704 48.28516,82.48828 -19.3468,147.70098 -78.33758,222.18956 -134.98828,263.08789 -17.29871,12.4886 -34.39705,21.72243 -50.41211,28.6875 -9.6054,-23.25196 -28.21884,-42.03305 -51.3711,-51.83789 V 232.57422 C 260.68201,218.10414 285,184.09506 285,145 285,93.00689 241.99311,50 190,50 Z" />
</svg>
