<?xml version="1.0" encoding="UTF-8" standalone="no"?>
<svg
   viewBox="0 0 700 700"
   version="1.1"
   id="svg9724"
   sodipodi:docname="heart.svg"
   inkscape:version="1.3.2 (091e20ef0f, 2023-11-25)"
   width="700"
   height="700"
   xmlns:inkscape="http://www.inkscape.org/namespaces/inkscape"
   xmlns:sodipodi="http://sodipodi.sourceforge.net/DTD/sodipodi-0.dtd"
   xmlns="http://www.w3.org/2000/svg"
   xmlns:svg="http://www.w3.org/2000/svg">
  <defs
     id="defs9728" />
  <sodipodi:namedview
     id="namedview9726"
     pagecolor="#ffffff"
     bordercolor="#666666"
     borderopacity="1.0"
     inkscape:showpageshadow="2"
     inkscape:pageopacity="0.0"
     inkscape:pagecheckerboard="0"
     inkscape:deskcolor="#d1d1d1"
     showgrid="true"
     inkscape:zoom="0.84118632"
     inkscape:cx="211.01152"
     inkscape:cy="332.26884"
     inkscape:window-width="1920"
     inkscape:window-height="1048"
     inkscape:window-x="0"
     inkscape:window-y="0"
     inkscape:window-maximized="1"
     inkscape:current-layer="svg9724"
     showguides="true">
    <inkscape:grid
       type="xygrid"
       id="grid9972"
       originx="0"
       originy="0"
       spacingy="1"
       spacingx="1"
       units="px"
       visible="true" />
    <sodipodi:guide
       position="-260,300"
       orientation="0,-1"
       id="guide383"
       inkscape:locked="false" />
    <sodipodi:guide
       position="300,380"
       orientation="1,0"
       id="guide385"
       inkscape:locked="false" />
    <sodipodi:guide
       position="240,520"
       orientation="0,-1"
       id="guide939"
       inkscape:locked="false" />
    <sodipodi:guide
       position="220,80"
       orientation="0,-1"
       id="guide941"
       inkscape:locked="false" />
    <sodipodi:guide
       position="30,340"
       orientation="0,-1"
       id="guide1192"
       inkscape:locked="false" />
  </sodipodi:namedview>
  <path
     style="color:#000000;fill:#000000;stroke-linecap:round;stroke-linejoin:round;-inkscape-stroke:none;paint-order:stroke fill markers"
     d="m 225,49.999106 c -96.17595,0 -175,78.824054 -175,175.000004 a 40.004,40.004 0 0 0 0,0.0801 c 0.07897,39.19863 13.408221,77.17355 37.638672,107.91797 a 40.004,40.004 0 0 0 0.617187,1.33984 L 318.25586,634.34091 a 40.004,40.004 0 0 0 63.48828,0 l 230,-300.00391 a 40.004,40.004 0 0 0 1.61523,-2.67773 C 636.93566,301.1495 649.92216,263.71938 650,225.07919 a 40.004,40.004 0 0 0 0,-0.0801 C 650,128.82316 571.17595,49.999106 475,49.999106 a 40.004,40.004 0 0 0 -0.0937,0 C 427.04944,50.11054 382.38427,69.878806 350.14648,102.86043 317.82097,69.788361 273.0002,50.008043 225.00781,49.999106 a 40.004,40.004 0 0 0 -0.008,0 z m -0.008,80.000004 H 225 c 38.83517,0.0104 73.50841,23.40429 88.05664,59.41211 a 40.004,40.004 0 0 0 74.17578,0 c 14.51433,-35.92422 49.06701,-59.29868 87.8086,-59.41016 52.90802,0.022 94.93606,42.05069 94.95703,94.95899 -0.0533,21.79014 -7.58346,42.87972 -21.34766,59.77343 a 40.004,40.004 0 0 0 -0.75781,1.4004 L 350,544.25888 152.74023,286.96005 a 40.004,40.004 0 0 0 -1.39062,-2.22657 c -13.7642,-16.8937 -21.29432,-37.98329 -21.34766,-59.77343 0.021,-52.91952 42.06637,-94.95676 94.99024,-94.96094 z"
     id="path399" />
</svg>
