<?xml version="1.0" encoding="UTF-8" standalone="no"?>
<svg
   viewBox="0 0 700 700"
   version="1.1"
   id="svg9724"
   sodipodi:docname="hide.svg"
   inkscape:version="1.3.2 (091e20ef0f, 2023-11-25)"
   width="700"
   height="700"
   xmlns:inkscape="http://www.inkscape.org/namespaces/inkscape"
   xmlns:sodipodi="http://sodipodi.sourceforge.net/DTD/sodipodi-0.dtd"
   xmlns="http://www.w3.org/2000/svg"
   xmlns:svg="http://www.w3.org/2000/svg">
  <defs
     id="defs9728" />
  <sodipodi:namedview
     id="namedview9726"
     pagecolor="#ffffff"
     bordercolor="#666666"
     borderopacity="1.0"
     inkscape:showpageshadow="2"
     inkscape:pageopacity="0.0"
     inkscape:pagecheckerboard="0"
     inkscape:deskcolor="#d1d1d1"
     showgrid="true"
     inkscape:zoom="0.84118632"
     inkscape:cx="230.03227"
     inkscape:cy="352.47839"
     inkscape:window-width="1920"
     inkscape:window-height="1048"
     inkscape:window-x="0"
     inkscape:window-y="0"
     inkscape:window-maximized="1"
     inkscape:current-layer="svg9724"
     showguides="true">
    <inkscape:grid
       type="xygrid"
       id="grid9972"
       originx="0"
       originy="0"
       spacingy="1"
       spacingx="1"
       units="px"
       visible="true" />
    <sodipodi:guide
       position="300,360"
       orientation="1,0"
       id="guide1208"
       inkscape:locked="false" />
    <sodipodi:guide
       position="30,300"
       orientation="0,-1"
       id="guide345"
       inkscape:locked="false" />
  </sodipodi:namedview>
  <g
     id="g1"
     transform="translate(49.948467,50.000313)">
    <path
       id="path401"
       style="color:#000000;fill:#000000;stroke-linecap:round;-inkscape-stroke:none"
       d="m 304.97266,60.011719 c -3.32921,-0.03655 -6.66705,0.0061 -10.01172,0.126953 C 187.93101,64.004416 94.223965,145.76059 6.6503906,276.92188 a 40,40 0 0 0 -6.1582031,19.1914 40,40 0 0 0 -0.36523438,3.09766 40,40 0 0 0 0.6953125,5.88867 40,40 0 0 0 1.49999998,7.5293 40,40 0 0 0 0.6035156,1.31054 40,40 0 0 0 3.8085938,8.27149 c 28.71421,43.00604 58.106441,80.57207 88.392578,111.95117 L 152.01367,377.27539 C 131.15224,355.76877 109.85224,330.01133 88.212891,299.50781 163.93506,192.80386 235.70134,142.33057 297.84766,140.08594 c 23.18947,-0.83757 47.65584,4.74368 73.33203,18.02344 L 429.63086,99.658203 C 389.28095,74.112324 347.77391,60.481577 304.97266,60.011719 Z M 506.57617,164.13477 450,220.71094 c 20.20947,21.45863 41.00555,47.49023 62.4082,78.91797 -80.04788,117.50073 -151.88894,161.68056 -214.47851,159.41992 -21.18221,-0.76507 -43.50413,-7.2819 -66.69727,-19.57031 l -58.94531,58.94531 c 39.09518,24.76046 79.83964,39.02221 122.75586,40.57226 107.0299,3.86576 206.10775,-73.04148 298.78125,-217.38476 a 40,40 0 0 0 6.13476,-24.89844 40,40 0 0 0 -0.22656,-2.39258 40,40 0 0 0 -0.12304,-0.83398 40,40 0 0 0 -5.86719,-15.96289 C 565.30627,233.23316 536.26259,195.34152 506.57617,164.13477 Z M 300,180 c -65.91862,0 -120,54.08138 -120,120 0,14.63297 2.79619,28.62076 7.66406,41.625 l 53.49219,-53.49219 c 4.66041,-23.84277 23.13379,-42.31615 46.97656,-46.97656 L 341.625,187.66406 C 328.62076,182.79619 314.63297,180 300,180 Z m 112.33594,78.375 -53.49219,53.49219 c -4.66041,23.84277 -23.13379,42.31615 -46.97656,46.97656 L 258.375,412.33594 C 271.37924,417.20381 285.36703,420 300,420 c 65.91862,0 120,-54.08138 120,-120 0,-14.63297 -2.79619,-28.62076 -7.66406,-41.625 z" />
    <path
       style="color:#000000;fill:#000000;stroke-linecap:round;-inkscape-stroke:none"
       d="M 570,0 A 30,30 0 0 0 548.78711,8.7871094 L 8.7871094,548.78711 a 30,30 0 0 0 0,42.42578 30,30 0 0 0 42.4257816,0 L 591.21289,51.212891 a 30,30 0 0 0 0,-42.4257816 A 30,30 0 0 0 570,0 Z"
       id="path345" />
  </g>
</svg>
