<?xml version="1.0" encoding="UTF-8" standalone="no"?>
<svg
   viewBox="0 0 700 700"
   version="1.1"
   id="svg9724"
   sodipodi:docname="info-circle.svg"
   inkscape:version="1.3.2 (091e20ef0f, 2023-11-25)"
   width="700"
   height="700"
   xmlns:inkscape="http://www.inkscape.org/namespaces/inkscape"
   xmlns:sodipodi="http://sodipodi.sourceforge.net/DTD/sodipodi-0.dtd"
   xmlns="http://www.w3.org/2000/svg"
   xmlns:svg="http://www.w3.org/2000/svg">
  <defs
     id="defs9728" />
  <sodipodi:namedview
     id="namedview9726"
     pagecolor="#ffffff"
     bordercolor="#666666"
     borderopacity="1.0"
     inkscape:showpageshadow="2"
     inkscape:pageopacity="0.0"
     inkscape:pagecheckerboard="0"
     inkscape:deskcolor="#d1d1d1"
     showgrid="true"
     inkscape:zoom="0.59480855"
     inkscape:cx="78.176415"
     inkscape:cy="483.3488"
     inkscape:window-width="1920"
     inkscape:window-height="1048"
     inkscape:window-x="0"
     inkscape:window-y="0"
     inkscape:window-maximized="1"
     inkscape:current-layer="svg9724"
     showguides="true">
    <inkscape:grid
       type="xygrid"
       id="grid9972"
       originx="0"
       originy="0"
       spacingy="1"
       spacingx="1"
       units="px"
       visible="true" />
    <sodipodi:guide
       position="300,360"
       orientation="1,0"
       id="guide1208"
       inkscape:locked="false" />
  </sodipodi:namedview>
  <g
     id="g1"
     transform="translate(49.999249,50.000065)">
    <path
       style="color:#000000;fill:#000000;stroke-linecap:round;-inkscape-stroke:none"
       d="m 300,234 c -22.09139,0 -40,17.90861 -40,40 v 170 c 0,22.09139 17.90861,40 40,40 22.09139,0 40,-17.90861 40,-40 V 274 c 0,-22.09139 -17.90861,-40 -40,-40 z"
       id="path1210"
       sodipodi:nodetypes="sssssss" />
    <path
       style="color:#000000;fill:#000000;stroke-width:0.999997;stroke-linecap:round;stroke-linejoin:round;-inkscape-stroke:none;paint-order:stroke fill markers"
       d="M 300.00075,6.6085498e-4 C 134.77436,6.6085498e-4 6.8104742e-4,134.80336 6.8104742e-4,299.99994 6.8104742e-4,465.19652 134.77436,599.99921 300.00075,599.99921 c 165.22639,0 300.00007,-134.80269 300.00007,-299.99927 C 600.00082,134.80336 465.22714,6.6085498e-4 300.00075,6.6085498e-4 Z m 0,79.97528514502 c 121.94807,1e-6 219.97464,98.019424 219.97464,220.023994 0,122.00457 -98.02657,220.02399 -219.97464,220.02399 -121.94807,0 -219.976505,-98.01942 -219.976505,-220.02399 1e-6,-122.00457 98.028435,-220.023994 219.976505,-220.023994 z"
       id="path390" />
    <path
       style="color:#000000;fill:#000000;stroke-linecap:round;stroke-linejoin:round;-inkscape-stroke:none;paint-order:stroke fill markers"
       d="m 300,110 c -27.14042,0 -50,22.85958 -50,50 0,27.14042 22.85958,50 50,50 27.14042,0 50,-22.85958 50,-50 0,-27.14042 -22.85958,-50 -50,-50 z"
       id="path1629"
       sodipodi:nodetypes="sssss" />
  </g>
</svg>
