<?xml version="1.0" encoding="UTF-8" standalone="no"?>
<svg
   viewBox="0 0 600 600"
   version="1.1"
   id="svg9724"
   sodipodi:docname="add-info.svg"
   inkscape:version="1.2.2 (1:1.2.2+202212051550+b0a8486541)"
   width="600"
   height="600"
   xmlns:inkscape="http://www.inkscape.org/namespaces/inkscape"
   xmlns:sodipodi="http://sodipodi.sourceforge.net/DTD/sodipodi-0.dtd"
   xmlns="http://www.w3.org/2000/svg"
   xmlns:svg="http://www.w3.org/2000/svg">
  <defs
     id="defs9728" />
  <sodipodi:namedview
     id="namedview9726"
     pagecolor="#ffffff"
     bordercolor="#666666"
     borderopacity="1.0"
     inkscape:showpageshadow="2"
     inkscape:pageopacity="0.0"
     inkscape:pagecheckerboard="0"
     inkscape:deskcolor="#d1d1d1"
     showgrid="true"
     inkscape:zoom="0.59480855"
     inkscape:cx="78.176415"
     inkscape:cy="483.3488"
     inkscape:window-width="1920"
     inkscape:window-height="1009"
     inkscape:window-x="0"
     inkscape:window-y="1080"
     inkscape:window-maximized="1"
     inkscape:current-layer="svg9724"
     showguides="true">
    <inkscape:grid
       type="xygrid"
       id="grid9972"
       originx="0"
       originy="0" />
    <sodipodi:guide
       position="300,360"
       orientation="1,0"
       id="guide1208"
       inkscape:locked="false" />
  </sodipodi:namedview>

  <path
     style="color:#000000;fill:#000000;stroke-linecap:round;-inkscape-stroke:none"
     d="m 300,234 c -22.09139,0 -40,17.90861 -40,40 v 170 c 0,22.09139 17.90861,40 40,40 22.09139,0 40,-17.90861 40,-40 V 274 c 0,-22.09139 -17.90861,-40 -40,-40 z"
     id="path1210"
     sodipodi:nodetypes="sssssss" />
  <path
     style="stroke-width:1.05103;color:#000000;fill:#000000;stroke-linecap:round;stroke-linejoin:round;-inkscape-stroke:none;paint-order:stroke fill markers"
     d="m 300.60937,-12.792969 c -173.60599,0 -315.214839,141.724839 -315.214839,315.404299 0,173.67945 141.608849,315.40429 315.214839,315.40429 173.606,0 315.21485,-141.72484 315.21485,-315.40429 0,-173.67946 -141.60885,-315.404299 -315.21485,-315.404299 z m 0,84.082031 c 128.13278,10e-7 231.13086,103.052738 231.13086,231.322268 0,128.26952 -102.99808,231.32226 -231.13086,231.32226 C 172.4766,533.93359 69.476562,430.88085 69.476562,302.61133 69.476563,174.3418 172.4766,71.289062 300.60937,71.289062 Z"
     id="path390"
     transform="matrix(0.95173205,0,0,0.95115787,13.901174,12.168794)" />
  <path
     style="color:#000000;fill:#000000;stroke-linecap:round;stroke-linejoin:round;-inkscape-stroke:none;paint-order:stroke fill markers"
     d="m 300,110 c -27.14042,0 -50,22.85958 -50,50 0,27.14042 22.85958,50 50,50 27.14042,0 50,-22.85958 50,-50 0,-27.14042 -22.85958,-50 -50,-50 z"
     id="path1629"
     sodipodi:nodetypes="sssss" />
</svg>
