<?xml version="1.0" encoding="UTF-8" standalone="no"?>
<svg
   viewBox="0 0 700 700"
   version="1.1"
   id="svg9724"
   sodipodi:docname="lock-closed.svg"
   inkscape:version="1.3.2 (091e20ef0f, 2023-11-25)"
   width="700"
   height="700"
   xmlns:inkscape="http://www.inkscape.org/namespaces/inkscape"
   xmlns:sodipodi="http://sodipodi.sourceforge.net/DTD/sodipodi-0.dtd"
   xmlns="http://www.w3.org/2000/svg"
   xmlns:svg="http://www.w3.org/2000/svg">
  <defs
     id="defs9728" />
  <sodipodi:namedview
     id="namedview9726"
     pagecolor="#ffffff"
     bordercolor="#666666"
     borderopacity="1.0"
     inkscape:showpageshadow="2"
     inkscape:pageopacity="0.0"
     inkscape:pagecheckerboard="0"
     inkscape:deskcolor="#d1d1d1"
     showgrid="true"
     inkscape:zoom="0.59480855"
     inkscape:cx="300.09656"
     inkscape:cy="414.41906"
     inkscape:window-width="1920"
     inkscape:window-height="1008"
     inkscape:window-x="0"
     inkscape:window-y="1080"
     inkscape:window-maximized="1"
     inkscape:current-layer="svg9724"
     showguides="true">
    <inkscape:grid
       type="xygrid"
       id="grid9972"
       originx="0"
       originy="0"
       spacingy="1"
       spacingx="1"
       units="px"
       visible="true" />
  </sodipodi:namedview>
  <g
     id="g3"
     transform="translate(0,-32.092285)">
    <path
       id="rect1"
       style="color:#000000;fill:#000000;stroke-linecap:round;stroke-linejoin:round;-inkscape-stroke:none;paint-order:stroke fill markers"
       d="m 351.16211,82.318359 c -52.69732,-0.440247 -98.98643,28.950861 -129.76563,70.689451 -30.77918,41.73859 -48.4544,96.62087 -48.98046,156.65625 a 40.00005,40.00005 0 0 0 0.64062,5.20703 h -8.32422 a 40.004,40.004 0 0 0 -40,40 v 287 a 40.004,40.004 0 0 0 40,40 h 370.53516 a 40.004,40.004 0 0 0 40,-40 v -287 a 40.004,40.004 0 0 0 -40,-40 H 527.25 a 40.00005,40.00005 0 0 0 0.33594,-2.55859 c 0,-60.03896 -17.19386,-115.14977 -47.54102,-157.31055 C 449.69776,112.84119 403.85943,82.758612 351.16211,82.318359 Z m -0.66797,79.996091 c 22.96571,0.19187 45.50482,12.86593 64.62109,39.42383 19.11629,26.5579 32.47071,66.12797 32.47071,110.57422 a 40.00005,40.00005 0 0 0 0.33594,2.55859 H 251.7793 a 40.00005,40.00005 0 0 0 0.63281,-4.50586 c 0.38943,-44.44217 14.08837,-83.72832 33.37109,-109.87695 19.28273,-26.14862 41.74523,-38.36569 64.71094,-38.17383 z M 204.73242,394.87109 h 290.53516 v 207 H 204.73242 Z" />
    <path
       style="color:#000000;fill:#000000;stroke-linecap:round;stroke-linejoin:round;-inkscape-stroke:none;paint-order:stroke fill markers"
       d="m 370.91602,427.4043 a 40,40 0 0 0 -21.22461,6.99804 40,40 0 0 0 -20.91407,-6.59765 40,40 0 0 0 -39.6914,40.30468 c 0.12177,15.90055 3.82985,30.87833 12.63672,44.54297 8.80686,13.66465 26.02538,28.01444 48.78515,27.79688 22.75978,-0.21756 39.5584,-14.73862 48.1836,-28.44922 8.6252,-13.7106 12.22461,-28.69489 12.22461,-44.5957 a 40,40 0 0 0 -40,-40 z"
       id="path2" />
  </g>
</svg>
