<?xml version="1.0" encoding="UTF-8" standalone="no"?>
<svg
   viewBox="0 0 700 700"
   version="1.1"
   id="svg9724"
   sodipodi:docname="lock-open.svg"
   inkscape:version="1.3.2 (091e20ef0f, 2023-11-25)"
   width="700"
   height="700"
   xmlns:inkscape="http://www.inkscape.org/namespaces/inkscape"
   xmlns:sodipodi="http://sodipodi.sourceforge.net/DTD/sodipodi-0.dtd"
   xmlns="http://www.w3.org/2000/svg"
   xmlns:svg="http://www.w3.org/2000/svg">
  <defs
     id="defs9728" />
  <sodipodi:namedview
     id="namedview9726"
     pagecolor="#ffffff"
     bordercolor="#666666"
     borderopacity="1.0"
     inkscape:showpageshadow="2"
     inkscape:pageopacity="0.0"
     inkscape:pagecheckerboard="0"
     inkscape:deskcolor="#d1d1d1"
     showgrid="true"
     inkscape:zoom="0.59480855"
     inkscape:cx="300.09656"
     inkscape:cy="414.41906"
     inkscape:window-width="1920"
     inkscape:window-height="1048"
     inkscape:window-x="0"
     inkscape:window-y="0"
     inkscape:window-maximized="1"
     inkscape:current-layer="svg9724"
     showguides="true">
    <inkscape:grid
       type="xygrid"
       id="grid9972"
       originx="0"
       originy="0"
       spacingy="1"
       spacingx="1"
       units="px"
       visible="true" />
  </sodipodi:namedview>
  <g
     id="g3"
     transform="translate(0,3.1477307)">
    <path
       id="rect1"
       style="color:#000000;fill:#000000;stroke-linecap:round;stroke-linejoin:round;-inkscape-stroke:none;paint-order:stroke fill markers"
       d="M 353.29297,47.203125 C 339.60945,46.813659 325.74334,48.406251 312.06641,52.214844 224.53402,76.589839 173.31922,171.27332 172.41602,274.34961 a 40.00005,40.00005 0 0 0 0.63867,5.20898 h -8.32227 a 40.004,40.004 0 0 0 -40,40 v 287 a 40.004,40.004 0 0 0 40,40 h 370.53516 a 40.004,40.004 0 0 0 40,-40 v -287 a 40.004,40.004 0 0 0 -40,-40 H 251.7793 a 40.00005,40.00005 0 0 0 0.63281,-4.50781 c 0.66679,-76.09528 41.44905,-134.7218 81.11523,-145.76758 19.8331,-5.52288 37.8948,-1.8497 56.72852,11.71875 18.83372,13.56846 37.02556,38.13748 47.76758,72.25977 a 40.00005,40.00005 0 0 0 50.16601,26.14258 40.00005,40.00005 0 0 0 26.14258,-50.16407 C 499.20796,141.19821 472.51038,101.66061 437.01953,76.091797 412.61958,58.513236 383.3967,48.05995 353.29297,47.203125 Z M 204.73242,359.55859 h 290.53516 v 207 H 204.73242 Z" />
    <path
       style="color:#000000;fill:#000000;stroke-linecap:round;stroke-linejoin:round;-inkscape-stroke:none;paint-order:stroke fill markers"
       d="m 370.91602,392.08984 a 40,40 0 0 0 -21.22461,6.99805 40,40 0 0 0 -20.91407,-6.5957 40,40 0 0 0 -39.6914,40.30468 c 0.12177,15.90055 3.82985,30.87833 12.63672,44.54297 8.80686,13.66465 26.02538,28.01444 48.78515,27.79688 22.75977,-0.21756 39.5584,-14.73862 48.1836,-28.44922 8.6252,-13.7106 12.2246,-28.69489 12.22461,-44.5957 a 40,40 0 0 0 -40,-40.00196 z"
       id="path2" />
  </g>
</svg>
