<?xml version="1.0" encoding="UTF-8" standalone="no"?>
<svg
   viewBox="0 0 600 600"
   version="1.1"
   id="svg9724"
   sodipodi:docname="page.svg"
   inkscape:version="1.2.2 (1:1.2.2+202212051550+b0a8486541)"
   width="600"
   height="600"
   xmlns:inkscape="http://www.inkscape.org/namespaces/inkscape"
   xmlns:sodipodi="http://sodipodi.sourceforge.net/DTD/sodipodi-0.dtd"
   xmlns="http://www.w3.org/2000/svg"
   xmlns:svg="http://www.w3.org/2000/svg">
  <defs
     id="defs9728" />
  <sodipodi:namedview
     id="namedview9726"
     pagecolor="#ffffff"
     bordercolor="#666666"
     borderopacity="1.0"
     inkscape:showpageshadow="2"
     inkscape:pageopacity="0.0"
     inkscape:pagecheckerboard="0"
     inkscape:deskcolor="#d1d1d1"
     showgrid="true"
     inkscape:zoom="0.84118632"
     inkscape:cx="176.53639"
     inkscape:cy="360.79997"
     inkscape:window-width="1920"
     inkscape:window-height="1009"
     inkscape:window-x="0"
     inkscape:window-y="1080"
     inkscape:window-maximized="1"
     inkscape:current-layer="svg9724"
     showguides="true">
    <inkscape:grid
       type="xygrid"
       id="grid9972"
       originx="0"
       originy="0" />
    <sodipodi:guide
       position="300,360"
       orientation="1,0"
       id="guide1208"
       inkscape:locked="false" />
  </sodipodi:namedview>

  <path
     style="color:#000000;fill:#020202;stroke-linejoin:round;-inkscape-stroke:none;paint-order:stroke fill markers"
     d="M 40,0 A 40.004,40.004 0 0 0 0,40 v 520 a 40.004,40.004 0 0 0 40,40 h 520 a 40.004,40.004 0 0 0 40,-40 V 40 A 40.004,40.004 0 0 0 560,0 Z M 80,80 H 520 V 520 H 80 Z"
     id="path1098" />
  <path
     style="color:#000000;fill:#020202;stroke-width:0.999999;stroke-linecap:round;stroke-linejoin:round;-inkscape-stroke:none;paint-order:stroke fill markers"
     d="m 150,110 a 40.004,34.0034 0 0 0 -40,34 v 102 a 40.004,34.0034 0 0 0 40,34 h 80 a 40.004,34.0034 0 0 0 40,-34 V 144 a 40.004,34.0034 0 0 0 -40,-34 z"
     id="path1093" />
  <path
     style="color:#000000;fill:#000000;stroke-linecap:round;-inkscape-stroke:none"
     d="m 327.04492,120 a 30,30 0 0 0 -30,30 30,30 0 0 0 30,30 H 460 a 30,30 0 0 0 30,-30 30,30 0 0 0 -30,-30 z"
     id="path450" />
  <path
     style="color:#000000;fill:#000000;stroke-linecap:round;-inkscape-stroke:none"
     d="m 328.18164,220 a 30,30 0 0 0 -30,30 30,30 0 0 0 30,30 h 130.68164 a 30,30 0 0 0 30,-30 30,30 0 0 0 -30,-30 z"
     id="path450-3" />
  <path
     style="color:#000000;fill:#000000;stroke-linecap:round;-inkscape-stroke:none"
     d="m 141.98242,320 a 30,30 0 0 0 -30,30 30,30 0 0 0 30,30 h 316.03516 a 30,30 0 0 0 30,-30 30,30 0 0 0 -30,-30 z"
     id="path450-3-6" />
  <path
     style="color:#000000;fill:#000000;stroke-linecap:round;-inkscape-stroke:none"
     d="m 141.98047,420 a 30,30 0 0 0 -30,30 30,30 0 0 0 30,30 H 459.1875 a 30,30 0 0 0 30,-30 30,30 0 0 0 -30,-30 z"
     id="path450-3-6-7" />
</svg>
