<?xml version="1.0" encoding="UTF-8" standalone="no"?>
<svg
   viewBox="0 0 600 600"
   version="1.1"
   id="svg9724"
   sodipodi:docname="player-subtitle.svg"
   inkscape:version="1.2.2 (1:1.2.2+202212051550+b0a8486541)"
   width="600"
   height="600"
   xmlns:inkscape="http://www.inkscape.org/namespaces/inkscape"
   xmlns:sodipodi="http://sodipodi.sourceforge.net/DTD/sodipodi-0.dtd"
   xmlns="http://www.w3.org/2000/svg"
   xmlns:svg="http://www.w3.org/2000/svg">
  <defs
     id="defs9728" />
  <sodipodi:namedview
     id="namedview9726"
     pagecolor="#ffffff"
     bordercolor="#666666"
     borderopacity="1.0"
     inkscape:showpageshadow="2"
     inkscape:pageopacity="0.0"
     inkscape:pagecheckerboard="0"
     inkscape:deskcolor="#d1d1d1"
     showgrid="true"
     inkscape:zoom="0.84118632"
     inkscape:cx="-124.22931"
     inkscape:cy="385.76471"
     inkscape:window-width="1920"
     inkscape:window-height="1009"
     inkscape:window-x="0"
     inkscape:window-y="1080"
     inkscape:window-maximized="1"
     inkscape:current-layer="svg9724"
     showguides="true">
    <inkscape:grid
       type="xygrid"
       id="grid9972"
       originx="0"
       originy="0" />
    <sodipodi:guide
       position="-260,300"
       orientation="0,-1"
       id="guide383"
       inkscape:locked="false" />
    <sodipodi:guide
       position="200,470"
       orientation="1,0"
       id="guide385"
       inkscape:locked="false" />
    <sodipodi:guide
       position="240,520"
       orientation="0,-1"
       id="guide939"
       inkscape:locked="false" />
    <sodipodi:guide
       position="220,80"
       orientation="0,-1"
       id="guide941"
       inkscape:locked="false" />
  </sodipodi:namedview>

  <path
     style="color:#000000;fill:#000000;stroke-linecap:round;stroke-linejoin:round;-inkscape-stroke:none;paint-order:stroke fill markers"
     d="M 171.55664,42.169922 C 147.08755,40.859888 121.9215,47.159526 100.33789,61.033203 31.270347,105.42897 0,199.48257 0,301.41406 c 0,101.9315 31.270346,195.98314 100.33789,240.37891 34.53377,22.19788 78.23973,25.00548 113.58594,8.2793 35.34621,-16.72619 62.55647,-48.72586 82.20508,-90.08008 a 40,40 0 0 0 -18.96289,-53.29492 40,40 0 0 0 -53.29493,18.96289 c -14.0141,29.49534 -31.21387,45.97247 -44.16601,52.10156 -12.95215,6.12909 -21.43351,6.17105 -36.11133,-3.26367 C 114.2381,455.6286 80,384.45767 80,301.41406 c 0,-83.04361 34.2381,-154.21649 63.59375,-173.08594 14.67782,-9.43472 23.15918,-9.3908 36.11133,-3.26171 12.95214,6.12908 30.15191,22.60426 44.16601,52.09961 a 40,40 0 0 0 53.29493,18.96289 40,40 0 0 0 18.96289,-53.29493 C 276.4803,101.47976 249.27004,69.480095 213.92383,52.753906 200.669,46.481586 186.23809,42.955942 171.55664,42.169922 Z"
     id="path347" />
  <path
     style="color:#000000;fill:#000000;stroke-linecap:round;stroke-linejoin:round;-inkscape-stroke:none;paint-order:stroke fill markers"
     d="M 471.55664,40.755859 C 447.08755,39.445825 421.9215,45.745464 400.33789,59.619141 331.27035,104.01491 300,198.06851 300,300 c 0,101.93149 31.27035,195.98509 100.33789,240.38086 34.53377,22.19788 78.23973,25.00549 113.58594,8.2793 35.34621,-16.72619 62.55647,-48.72585 82.20508,-90.08008 a 40,40 0 0 0 -18.96289,-53.29688 40,40 0 0 0 -53.29493,18.96485 c -14.0141,29.49534 -31.21387,45.97052 -44.16601,52.09961 -12.95215,6.12908 -21.43351,6.17105 -36.11133,-3.26368 C 414.2381,454.21454 380,383.04361 380,300 c 0,-83.04361 34.2381,-154.21454 63.59375,-173.08398 14.67782,-9.43473 23.15918,-9.39276 36.11133,-3.26368 12.95214,6.12909 30.15191,22.60427 44.16601,52.09961 a 40,40 0 0 0 53.29493,18.96485 40,40 0 0 0 18.96289,-53.29688 C 576.4803,100.06569 549.27004,68.066032 513.92383,51.339844 500.669,45.067523 486.23809,41.54188 471.55664,40.755859 Z"
     id="path347-3" />
</svg>
