<?xml version="1.0" encoding="UTF-8" standalone="no"?>
<svg
   viewBox="0 0 700 700"
   version="1.1"
   id="svg9724"
   sodipodi:docname="player-volume.svg"
   inkscape:version="1.3.2 (091e20ef0f, 2023-11-25)"
   width="700"
   height="700"
   xmlns:inkscape="http://www.inkscape.org/namespaces/inkscape"
   xmlns:sodipodi="http://sodipodi.sourceforge.net/DTD/sodipodi-0.dtd"
   xmlns="http://www.w3.org/2000/svg"
   xmlns:svg="http://www.w3.org/2000/svg">
  <defs
     id="defs9728" />
  <sodipodi:namedview
     id="namedview9726"
     pagecolor="#ffffff"
     bordercolor="#666666"
     borderopacity="1.0"
     inkscape:showpageshadow="2"
     inkscape:pageopacity="0.0"
     inkscape:pagecheckerboard="0"
     inkscape:deskcolor="#d1d1d1"
     showgrid="true"
     inkscape:zoom="0.84118632"
     inkscape:cx="340.59042"
     inkscape:cy="379.82073"
     inkscape:window-width="1920"
     inkscape:window-height="1048"
     inkscape:window-x="0"
     inkscape:window-y="0"
     inkscape:window-maximized="1"
     inkscape:current-layer="svg9724"
     showguides="true">
    <inkscape:grid
       type="xygrid"
       id="grid9972"
       originx="0"
       originy="0"
       spacingy="1"
       spacingx="1"
       units="px"
       visible="true" />
    <sodipodi:guide
       position="-260,300"
       orientation="0,-1"
       id="guide383"
       inkscape:locked="false" />
    <sodipodi:guide
       position="120,450"
       orientation="1,0"
       id="guide385"
       inkscape:locked="false" />
    <sodipodi:guide
       position="630,380"
       orientation="0,-1"
       id="guide939"
       inkscape:locked="false" />
    <sodipodi:guide
       position="690,230"
       orientation="0,-1"
       id="guide941"
       inkscape:locked="false" />
    <sodipodi:guide
       position="400,400"
       orientation="1,0"
       id="guide295"
       inkscape:locked="false" />
  </sodipodi:namedview>
  <g
     id="g1"
     transform="translate(49.99982,49.999445)">
    <g
       id="g375"
       transform="matrix(-1,0,0,1,1173.7152,9.9999998)">
      <path
         style="color:#000000;fill:#000000;stroke-linecap:round;stroke-linejoin:round;-inkscape-stroke:none;paint-order:stroke fill markers"
         d="m 780.8457,173.55664 a 40.00005,40.00005 0 0 0 -15.22265,3.44141 C 721.72632,196.53652 698.11133,242.15606 698.11133,290 c 0,47.84394 23.61499,93.46348 67.51172,113.00195 a 40.00005,40.00005 0 0 0 52.80859,-20.27929 40.00005,40.00005 0 0 0 -20.27734,-52.8086 C 789.48321,326.05455 778.11133,310.56717 778.11133,290 c 0,-20.56717 11.37188,-36.05455 20.04297,-39.91406 a 40.00005,40.00005 0 0 0 20.27734,-52.8086 40.00005,40.00005 0 0 0 -37.58594,-23.7207 z"
         id="path349" />
      <path
         style="color:#000000;fill:#000000;stroke-linecap:round;stroke-linejoin:round;-inkscape-stroke:none;paint-order:stroke fill markers"
         d="m 689.33203,90.140625 a 39.999901,39.999901 0 0 0 -14.99805,4.318359 C 608.12326,128.64687 573.71484,206.66305 573.71484,290 c 0,83.33695 34.40842,161.35313 100.61914,195.54102 a 39.999901,39.999901 0 0 0 53.89454,-17.18946 39.999901,39.999901 0 0 0 -17.18946,-53.89258 C 682.42267,399.68292 653.71484,349.82407 653.71484,290 c 0,-59.82407 28.70783,-109.68292 57.32422,-124.45898 a 39.999901,39.999901 0 0 0 17.18946,-53.89258 39.999901,39.999901 0 0 0 -38.89649,-21.507815 z"
         id="path349-3" />
    </g>
    <path
       style="color:#000000;fill:#000000;stroke-linecap:round;stroke-linejoin:round;-inkscape-stroke:none"
       d="M 292.4082,0.10546875 A 40.004,40.004 0 0 0 264.11719,14.941406 L 122.94531,190.66406 H 40 a 40.004,40.004 0 0 0 -40,40 v 130.00391 a 40.004,40.004 0 0 0 40,40 h 82.41211 l 141.17187,183.71289 a 40.004,40.004 0 0 0 71.7168,-24.37305 V 39.992187 A 40.004,40.004 0 0 0 292.4082,0.10546875 Z M 255.30078,153.65234 v 288.6543 L 173.83789,336.29492 a 40.004,40.004 0 0 0 -31.7168,-15.62695 H 80 v -50.00391 h 62.12109 a 40.004,40.004 0 0 0 31.1836,-14.94726 z"
       id="path433" />
  </g>
</svg>
