<?xml version="1.0" encoding="UTF-8" standalone="no"?>
<svg
   viewBox="0 0 700 700"
   version="1.1"
   id="svg9724"
   sodipodi:docname="review.svg"
   inkscape:version="1.3.2 (091e20ef0f, 2023-11-25)"
   width="700"
   height="700"
   xmlns:inkscape="http://www.inkscape.org/namespaces/inkscape"
   xmlns:sodipodi="http://sodipodi.sourceforge.net/DTD/sodipodi-0.dtd"
   xmlns="http://www.w3.org/2000/svg"
   xmlns:svg="http://www.w3.org/2000/svg">
  <defs
     id="defs9728" />
  <sodipodi:namedview
     id="namedview9726"
     pagecolor="#ffffff"
     bordercolor="#666666"
     borderopacity="1.0"
     inkscape:showpageshadow="2"
     inkscape:pageopacity="0.0"
     inkscape:pagecheckerboard="0"
     inkscape:deskcolor="#d1d1d1"
     showgrid="true"
     inkscape:zoom="0.84118632"
     inkscape:cx="219.3331"
     inkscape:cy="214.57791"
     inkscape:window-width="1920"
     inkscape:window-height="1008"
     inkscape:window-x="0"
     inkscape:window-y="1080"
     inkscape:window-maximized="1"
     inkscape:current-layer="svg9724"
     showguides="true">
    <inkscape:grid
       type="xygrid"
       id="grid9972"
       originx="0"
       originy="0"
       spacingy="1"
       spacingx="1"
       units="px"
       visible="true" />
  </sodipodi:namedview>
  <path
     style="color:#000000;fill:#000000;stroke-linecap:round;stroke-linejoin:round;-inkscape-stroke:none;paint-order:stroke fill markers"
     d="M 76.880859,50 A 40,40 0 0 0 61.572266,53.044922 40,40 0 0 0 48.595703,61.714844 40,40 0 0 0 36.880859,90 v 520.00391 a 40.004,40.004 0 0 0 63.607421,32.29101 L 363.0625,450.32617 h 260.05664 a 40.004,40.004 0 0 0 40,-40 V 90 a 40.004,40.004 0 0 0 -40,-40 z m 40.000001,80 H 583.11914 V 370.32617 H 350 a 40.004,40.004 0 0 0 -23.60742,7.71094 L 116.88086,531.20898 Z"
     id="path3" />
  <path
     id="path7"
     style="font-weight:bold;font-size:181.102px;font-family:Ubuntu;-inkscape-font-specification:'Ubuntu Bold';text-align:end;letter-spacing:0px;word-spacing:0px;text-anchor:end;stroke-width:79.9997;stroke-linecap:round;stroke-linejoin:round;paint-order:stroke fill markers"
     d="m 150.0918,183.01562 v 18.32618 c 0,8.20083 0.50168,17.07161 1.50585,26.61132 1.17151,9.53974 2.67853,19.16204 4.51954,28.86915 h 24.85351 c 1.50627,-9.70711 2.84607,-19.32941 4.01758,-28.86915 1.33896,-9.53971 2.00782,-18.32785 2.00782,-26.36132 v -18.57618 z m 54.72851,0 v 18.32618 c 0,8.20083 0.5017,17.07161 1.50586,26.61132 1.17159,9.53974 2.67854,19.16204 4.51953,28.86915 h 24.85352 c 1.50628,-9.70711 2.84408,-19.32941 4.01562,-28.86915 1.33892,-9.53971 2.00978,-18.32785 2.00978,-26.36132 v -18.57618 z m 253.45508,0 v 18.32618 c 0,8.20083 0.50363,17.07161 1.50781,26.61132 1.17155,9.53974 2.67658,19.16204 4.51758,28.86915 h 24.85352 c 1.50626,-9.70711 2.84603,-19.32941 4.01757,-28.86915 1.33891,-9.53971 2.00782,-18.32785 2.00782,-26.36132 v -18.57618 z m 54.72851,0 v 18.32618 c 0,8.20083 0.50169,17.07161 1.50587,26.61132 1.17153,9.53974 2.67852,19.16204 4.51953,28.86915 h 24.85351 c 1.50629,-9.70711 2.84603,-19.32941 4.01758,-28.86915 1.33891,-9.53971 2.00781,-18.32785 2.00781,-26.36132 v -18.57618 z m -225.9414,73.80665 c -6.0251,0 -11.46481,2.00863 -16.31836,6.02539 -4.68619,3.84935 -7.02929,9.53894 -7.02929,17.07031 0,7.53138 2.3431,13.30552 7.02929,17.32227 4.85355,3.84935 10.29326,5.77538 16.31836,5.77538 6.02508,0 11.3802,-1.92603 16.06641,-5.77538 4.85356,-4.01675 7.28124,-9.79089 7.28124,-17.32227 0,-7.53137 -2.42768,-13.22096 -7.28124,-17.07031 -4.68621,-4.01676 -10.04133,-6.02539 -16.06641,-6.02539 z m 61.75781,0 c -6.02508,0 -11.46479,2.00863 -16.31836,6.02539 -4.68619,3.84935 -7.02929,9.53894 -7.02929,17.07031 0,7.53138 2.3431,13.30552 7.02929,17.32227 4.85357,3.84935 10.29328,5.77538 16.31836,5.77538 6.0251,0 11.38021,-1.92603 16.06641,-5.77538 4.85353,-4.01675 7.28125,-9.79089 7.28125,-17.32227 0,-7.53137 -2.42772,-13.22096 -7.28125,-17.07031 -4.6862,-4.01676 -10.0413,-6.02539 -16.06641,-6.02539 z m 61.75782,0 c -6.02512,0 -11.46483,2.00863 -16.31836,6.02539 -4.68621,3.84935 -7.0293,9.53894 -7.0293,17.07031 0,7.53138 2.34309,13.30552 7.0293,17.32227 4.85353,3.84935 10.29324,5.77538 16.31836,5.77538 6.02507,0 11.38021,-1.92603 16.0664,-5.77538 4.85356,-4.01675 7.27929,-9.79089 7.27929,-17.32227 0,-7.53137 -2.42573,-13.22096 -7.27929,-17.07031 -4.68618,-4.01676 -10.04132,-6.02539 -16.0664,-6.02539 z" />
</svg>
