<?xml version="1.0" encoding="UTF-8" standalone="no"?>
<svg
   viewBox="0 0 700 700"
   version="1.1"
   id="svg9724"
   sodipodi:docname="star.svg"
   inkscape:version="1.3.2 (091e20ef0f, 2023-11-25)"
   width="700"
   height="700"
   xmlns:inkscape="http://www.inkscape.org/namespaces/inkscape"
   xmlns:sodipodi="http://sodipodi.sourceforge.net/DTD/sodipodi-0.dtd"
   xmlns="http://www.w3.org/2000/svg"
   xmlns:svg="http://www.w3.org/2000/svg">
  <defs
     id="defs9728" />
  <sodipodi:namedview
     id="namedview9726"
     pagecolor="#ffffff"
     bordercolor="#666666"
     borderopacity="1.0"
     inkscape:showpageshadow="2"
     inkscape:pageopacity="0.0"
     inkscape:pagecheckerboard="0"
     inkscape:deskcolor="#d1d1d1"
     showgrid="true"
     inkscape:zoom="0.84118632"
     inkscape:cx="188.42437"
     inkscape:cy="306.1153"
     inkscape:window-width="1920"
     inkscape:window-height="1048"
     inkscape:window-x="0"
     inkscape:window-y="0"
     inkscape:window-maximized="1"
     inkscape:current-layer="svg9724"
     showguides="true">
    <inkscape:grid
       type="xygrid"
       id="grid9972"
       originx="0"
       originy="0"
       spacingy="1"
       spacingx="1"
       units="px"
       visible="true" />
    <sodipodi:guide
       position="-260,300"
       orientation="0,-1"
       id="guide383"
       inkscape:locked="false" />
    <sodipodi:guide
       position="200,470"
       orientation="1,0"
       id="guide385"
       inkscape:locked="false" />
    <sodipodi:guide
       position="240,520"
       orientation="0,-1"
       id="guide939"
       inkscape:locked="false" />
    <sodipodi:guide
       position="220,80"
       orientation="0,-1"
       id="guide941"
       inkscape:locked="false" />
  </sodipodi:namedview>
  <g
     id="g1"
     transform="translate(49.999698,50.000021)">
    <path
       style="color:#000000;fill:#000000;stroke-width:1.15899;stroke-linecap:round;stroke-linejoin:round;-inkscape-stroke:none;paint-order:stroke fill markers"
       d="M 307.6257,12.916101 A 39.983658,40.024332 0 0 0 262.04767,36.019326 L 197.39225,185.42592 35.68244,202.98491 a 39.983658,40.024332 0 0 0 -22.13855,69.79661 l 121.97129,107.72295 -33.2904,159.37397 a 39.983658,40.024332 0 0 0 59.47203,42.64619 l 140.03734,-82.83053 141.13466,80.94168 a 39.983658,40.024332 0 0 0 58.89283,-43.43887 L 466.33997,378.28269 586.85647,268.93136 A 39.983658,40.024332 0 0 0 563.78351,199.43823 L 401.85423,184.05345 335.20103,35.530129 A 39.983658,40.024332 0 0 0 307.6257,12.916101 Z m -8.22871,138.157329 39.05072,87.02041 a 39.983658,40.024332 0 0 0 32.69084,23.44295 l 94.87336,9.0139 -70.60806,64.06666 a 39.983658,40.024332 0 0 0 -12.16998,38.36797 l 20.7539,93.10821 -82.6898,-47.42492 a 39.983658,40.024332 0 0 0 -40.21364,0.26951 l -82.04724,48.53013 19.505,-93.3777 a 39.983658,40.024332 0 0 0 -12.68357,-38.20038 l -71.46101,-63.11319 94.74438,-10.28672 a 39.983658,40.024332 0 0 0 32.37409,-23.88005 z"
       id="path394" />
  </g>
</svg>
